G04 ---------------------------- Layer name :BOTTOM SOLDER LAYER*
G04 EasyEDA v5.8.22, Sun, 09 Dec 2018 21:39:12 GMT*
G04 2c5bf0bc6ca0461b88a5c6b9ef220c93*
G04 Gerber Generator version 0.2*
G04 Scale: 100 percent, Rotated: No, Reflected: No *
G04 Dimensions in millimeters *
G04 leading zeros omitted , absolute positions ,3 integer and 3 decimal *
%FSLAX33Y33*%
%MOMM*%
G90*
G71D02*

%ADD19C,1.803197*%
%ADD20C,1.803400*%
%ADD21R,3.203194X1.403198*%

%LPD*%
G54D19*
G01X3047Y14535D02*
G01X3047Y15435D01*
G01X5587Y14535D02*
G01X5587Y15435D01*
G01X8127Y14535D02*
G01X8127Y15435D01*
G01X10667Y14535D02*
G01X10667Y15435D01*
G01X10667Y6915D02*
G01X10667Y7815D01*
G01X8127Y6915D02*
G01X8127Y7815D01*
G01X5587Y6915D02*
G01X5587Y7815D01*
G01X3047Y6915D02*
G01X3047Y7815D01*
G54D20*
G01X37655Y9905D02*
G01X38544Y9905D01*
G01X37655Y12445D02*
G01X38544Y12445D01*
G01X37655Y14985D02*
G01X38544Y14985D01*
G01X37655Y17525D02*
G01X38544Y17525D01*
G01X37655Y20065D02*
G01X38544Y20065D01*
G01X37655Y22605D02*
G01X38544Y22605D01*
G01X37655Y25145D02*
G01X38544Y25145D01*
G01X37655Y27685D02*
G01X38544Y27685D01*
G01X37655Y30225D02*
G01X38544Y30225D01*
G01X37655Y32765D02*
G01X38544Y32765D01*
G01X37655Y35305D02*
G01X38544Y35305D01*
G01X37655Y37845D02*
G01X38544Y37845D01*
G01X23304Y37845D02*
G01X22415Y37845D01*
G01X23304Y35305D02*
G01X22415Y35305D01*
G01X23304Y32765D02*
G01X22415Y32765D01*
G01X23304Y30225D02*
G01X22415Y30225D01*
G01X23304Y27685D02*
G01X22415Y27685D01*
G01X23304Y25145D02*
G01X22415Y25145D01*
G01X23304Y22605D02*
G01X22415Y22605D01*
G01X23304Y20065D02*
G01X22415Y20065D01*
G01X23304Y17525D02*
G01X22415Y17525D01*
G01X23304Y14985D02*
G01X22415Y14985D01*
G01X23304Y12445D02*
G01X22415Y12445D01*
G01X23304Y9905D02*
G01X22415Y9905D01*
G54D19*
G01X17406Y32740D02*
G01X18306Y32740D01*
G01X17406Y35280D02*
G01X18306Y35280D01*
G01X8831Y21178D02*
G01X7931Y21178D01*
G01X8831Y23718D02*
G01X7931Y23718D01*
G01X8439Y27939D02*
G01X9339Y27939D01*
G01X8439Y35559D02*
G01X9339Y35559D01*
G54D21*
G01X33527Y43579D03*
G01X34328Y46179D03*
G01X29225Y43581D03*
G01X29927Y46179D03*
M00*
M02*
