;PTH Drill file created by EasyEDA 
M48
METRIC,LZ,000.000
;Holesize 1 = 0.850 METRIC
T01C0.850
%
G05
G90
T01
X+003047Y+014985
X+005587Y+014985
X+008127Y+014985
X+010667Y+014985
X+010667Y+007365
X+008127Y+007365
X+005587Y+007365
X+003047Y+007365
X+038099Y+009905
X+038099Y+012445
X+038099Y+014985
X+038099Y+017525
X+038099Y+020065
X+038099Y+022605
X+038099Y+025145
X+038099Y+027685
X+038099Y+030225
X+038099Y+032765
X+038099Y+035305
X+038099Y+037845
X+022859Y+037845
X+022859Y+035305
X+022859Y+032765
X+022859Y+030225
X+022859Y+027685
X+022859Y+025145
X+022859Y+022605
X+022859Y+020065
X+022859Y+017525
X+022859Y+014985
X+022859Y+012445
X+022859Y+009905
X+017856Y+032740
X+017856Y+035280
X+008381Y+021178
X+008381Y+023718
X+008889Y+027939
X+008889Y+035559
M30
