G04 ---------------------------- Layer name :BOTTOM SILK LAYER*
G04 EasyEDA v5.8.22, Sun, 09 Dec 2018 21:39:12 GMT*
G04 2c5bf0bc6ca0461b88a5c6b9ef220c93*
G04 Gerber Generator version 0.2*
G04 Scale: 100 percent, Rotated: No, Reflected: No *
G04 Dimensions in millimeters *
G04 leading zeros omitted , absolute positions ,3 integer and 3 decimal *
%FSLAX33Y33*%
%MOMM*%
G90*
G71D02*

%ADD10C,0.254000*%
%ADD16C,0.152400*%
%ADD17C,0.177800*%
%ADD18C,0.203200*%

%LPD*%
G54D10*
G01X1777Y8635D02*
G01X11937Y8635D01*
G01X11937Y8635D02*
G01X11937Y13715D01*
G01X11937Y13715D02*
G01X1777Y13715D01*
G01X1777Y13715D02*
G01X1777Y8635D01*
G54D18*
G01X39369Y41655D02*
G01X39369Y8635D01*
G01X21589Y8635D01*
G01X21589Y41655D01*
G01X39369Y41655D01*
G54D17*
G01X6857Y5702D02*
G01X6857Y4612D01*
G01X6857Y5702D02*
G01X6390Y5702D01*
G01X6235Y5651D01*
G01X6182Y5600D01*
G01X6131Y5496D01*
G01X6131Y5339D01*
G01X6182Y5234D01*
G01X6235Y5184D01*
G01X6390Y5130D01*
G01X6857Y5130D01*
G01X5735Y5443D02*
G01X5735Y5496D01*
G01X5684Y5600D01*
G01X5631Y5651D01*
G01X5526Y5702D01*
G01X5321Y5702D01*
G01X5217Y5651D01*
G01X5163Y5600D01*
G01X5112Y5496D01*
G01X5112Y5392D01*
G01X5163Y5288D01*
G01X5267Y5130D01*
G01X5788Y4612D01*
G01X5059Y4612D01*
G01X30479Y43548D02*
G01X30479Y42458D01*
G01X30479Y43548D02*
G01X30012Y43548D01*
G01X29857Y43497D01*
G01X29804Y43446D01*
G01X29753Y43342D01*
G01X29753Y43185D01*
G01X29804Y43080D01*
G01X29857Y43030D01*
G01X30012Y42976D01*
G01X30479Y42976D01*
G01X29410Y43342D02*
G01X29306Y43393D01*
G01X29148Y43548D01*
G01X29148Y42458D01*
G54D16*
G01X35986Y9974D02*
G01X35882Y9941D01*
G01X35813Y9870D01*
G01X35778Y9766D01*
G01X35778Y9733D01*
G01X35813Y9629D01*
G01X35882Y9560D01*
G01X35986Y9524D01*
G01X36022Y9524D01*
G01X36126Y9560D01*
G01X36194Y9629D01*
G01X36230Y9733D01*
G01X36230Y9766D01*
G01X36194Y9870D01*
G01X36126Y9941D01*
G01X35986Y9974D01*
G01X35813Y9974D01*
G01X35641Y9941D01*
G01X35537Y9870D01*
G01X35501Y9766D01*
G01X35501Y9697D01*
G01X35537Y9593D01*
G01X35605Y9560D01*
G01X36230Y12237D02*
G01X36194Y12133D01*
G01X36126Y12100D01*
G01X36055Y12100D01*
G01X35986Y12133D01*
G01X35953Y12204D01*
G01X35918Y12341D01*
G01X35882Y12445D01*
G01X35813Y12514D01*
G01X35745Y12550D01*
G01X35641Y12550D01*
G01X35572Y12514D01*
G01X35537Y12481D01*
G01X35501Y12377D01*
G01X35501Y12237D01*
G01X35537Y12133D01*
G01X35572Y12100D01*
G01X35641Y12064D01*
G01X35745Y12064D01*
G01X35813Y12100D01*
G01X35882Y12169D01*
G01X35918Y12273D01*
G01X35953Y12410D01*
G01X35986Y12481D01*
G01X36055Y12514D01*
G01X36126Y12514D01*
G01X36194Y12481D01*
G01X36230Y12377D01*
G01X36230Y12237D01*
G01X36230Y15090D02*
G01X35501Y14744D01*
G01X36230Y14604D02*
G01X36230Y15090D01*
G01X36126Y17561D02*
G01X36194Y17525D01*
G01X36230Y17421D01*
G01X36230Y17353D01*
G01X36194Y17249D01*
G01X36090Y17180D01*
G01X35918Y17144D01*
G01X35745Y17144D01*
G01X35605Y17180D01*
G01X35537Y17249D01*
G01X35501Y17353D01*
G01X35501Y17386D01*
G01X35537Y17490D01*
G01X35605Y17561D01*
G01X35709Y17594D01*
G01X35745Y17594D01*
G01X35849Y17561D01*
G01X35918Y17490D01*
G01X35953Y17386D01*
G01X35953Y17353D01*
G01X35918Y17249D01*
G01X35849Y17180D01*
G01X35745Y17144D01*
G01X36230Y20101D02*
G01X36230Y19753D01*
G01X35918Y19720D01*
G01X35953Y19753D01*
G01X35986Y19857D01*
G01X35986Y19961D01*
G01X35953Y20065D01*
G01X35882Y20134D01*
G01X35778Y20170D01*
G01X35709Y20170D01*
G01X35605Y20134D01*
G01X35537Y20065D01*
G01X35501Y19961D01*
G01X35501Y19857D01*
G01X35537Y19753D01*
G01X35572Y19720D01*
G01X35641Y19684D01*
G01X36230Y22570D02*
G01X35745Y22224D01*
G01X35745Y22745D01*
G01X36230Y22570D02*
G01X35501Y22570D01*
G01X36230Y24833D02*
G01X36230Y25214D01*
G01X35953Y25006D01*
G01X35953Y25110D01*
G01X35918Y25181D01*
G01X35882Y25214D01*
G01X35778Y25250D01*
G01X35709Y25250D01*
G01X35605Y25214D01*
G01X35537Y25145D01*
G01X35501Y25041D01*
G01X35501Y24937D01*
G01X35537Y24833D01*
G01X35572Y24800D01*
G01X35641Y24764D01*
G01X36372Y27381D02*
G01X36398Y27381D01*
G01X36448Y27406D01*
G01X36474Y27431D01*
G01X36499Y27482D01*
G01X36499Y27584D01*
G01X36474Y27635D01*
G01X36448Y27660D01*
G01X36398Y27685D01*
G01X36347Y27685D01*
G01X36296Y27660D01*
G01X36220Y27609D01*
G01X35966Y27355D01*
G01X35966Y27711D01*
G01X36118Y29590D02*
G01X36169Y29565D01*
G01X36220Y29514D01*
G01X36245Y29463D01*
G01X36245Y29362D01*
G01X36220Y29311D01*
G01X36169Y29260D01*
G01X36118Y29235D01*
G01X36042Y29209D01*
G01X35915Y29209D01*
G01X35839Y29235D01*
G01X35788Y29260D01*
G01X35737Y29311D01*
G01X35712Y29362D01*
G01X35712Y29463D01*
G01X35737Y29514D01*
G01X35788Y29565D01*
G01X35839Y29590D01*
G01X35915Y29590D01*
G01X35915Y29463D02*
G01X35915Y29590D01*
G01X36245Y29758D02*
G01X35712Y29758D01*
G01X36245Y29758D02*
G01X35712Y30114D01*
G01X36245Y30114D02*
G01X35712Y30114D01*
G01X36245Y30281D02*
G01X35712Y30281D01*
G01X36245Y30281D02*
G01X36245Y30459D01*
G01X36220Y30535D01*
G01X36169Y30586D01*
G01X36118Y30612D01*
G01X36042Y30637D01*
G01X35915Y30637D01*
G01X35839Y30612D01*
G01X35788Y30586D01*
G01X35737Y30535D01*
G01X35712Y30459D01*
G01X35712Y30281D01*
G01X36118Y32130D02*
G01X36169Y32105D01*
G01X36220Y32054D01*
G01X36245Y32003D01*
G01X36245Y31902D01*
G01X36220Y31851D01*
G01X36169Y31800D01*
G01X36118Y31775D01*
G01X36042Y31749D01*
G01X35915Y31749D01*
G01X35839Y31775D01*
G01X35788Y31800D01*
G01X35737Y31851D01*
G01X35712Y31902D01*
G01X35712Y32003D01*
G01X35737Y32054D01*
G01X35788Y32105D01*
G01X35839Y32130D01*
G01X35915Y32130D01*
G01X35915Y32003D02*
G01X35915Y32130D01*
G01X36245Y32298D02*
G01X35712Y32298D01*
G01X36245Y32298D02*
G01X35712Y32654D01*
G01X36245Y32654D02*
G01X35712Y32654D01*
G01X36245Y32821D02*
G01X35712Y32821D01*
G01X36245Y32821D02*
G01X36245Y32999D01*
G01X36220Y33075D01*
G01X36169Y33126D01*
G01X36118Y33152D01*
G01X36042Y33177D01*
G01X35915Y33177D01*
G01X35839Y33152D01*
G01X35788Y33126D01*
G01X35737Y33075D01*
G01X35712Y32999D01*
G01X35712Y32821D01*
G01X36245Y34289D02*
G01X35712Y34289D01*
G01X36245Y34289D02*
G01X36245Y34518D01*
G01X36220Y34594D01*
G01X36194Y34620D01*
G01X36144Y34645D01*
G01X36093Y34645D01*
G01X36042Y34620D01*
G01X36017Y34594D01*
G01X35991Y34518D01*
G01X35991Y34289D01*
G01X35991Y34467D02*
G01X35712Y34645D01*
G01X36245Y34813D02*
G01X35712Y35168D01*
G01X36245Y35168D02*
G01X35712Y34813D01*
G01X36245Y35336D02*
G01X35712Y35336D01*
G01X36245Y37007D02*
G01X35712Y37007D01*
G01X36245Y36829D02*
G01X36245Y37185D01*
G01X36245Y37353D02*
G01X35712Y37708D01*
G01X36245Y37708D02*
G01X35712Y37353D01*
G01X36245Y38028D02*
G01X36220Y37978D01*
G01X36169Y37927D01*
G01X36118Y37901D01*
G01X36042Y37876D01*
G01X35915Y37876D01*
G01X35839Y37901D01*
G01X35788Y37927D01*
G01X35737Y37978D01*
G01X35712Y38028D01*
G01X35712Y38130D01*
G01X35737Y38181D01*
G01X35788Y38232D01*
G01X35839Y38257D01*
G01X35915Y38282D01*
G01X36042Y38282D01*
G01X36118Y38257D01*
G01X36169Y38232D01*
G01X36220Y38181D01*
G01X36245Y38130D01*
G01X36245Y38028D01*
G01X25196Y36829D02*
G01X24663Y36829D01*
G01X25196Y36829D02*
G01X25196Y37058D01*
G01X25171Y37134D01*
G01X25145Y37160D01*
G01X25095Y37185D01*
G01X25044Y37185D01*
G01X24993Y37160D01*
G01X24968Y37134D01*
G01X24942Y37058D01*
G01X24942Y36829D01*
G01X24942Y37007D02*
G01X24663Y37185D01*
G01X25196Y37556D02*
G01X24663Y37353D01*
G01X25196Y37556D02*
G01X24663Y37759D01*
G01X24841Y37429D02*
G01X24841Y37683D01*
G01X25196Y37927D02*
G01X24663Y38054D01*
G01X25196Y38181D02*
G01X24663Y38054D01*
G01X25196Y38181D02*
G01X24663Y38308D01*
G01X25196Y38435D02*
G01X24663Y38308D01*
G01X25069Y34924D02*
G01X25120Y34899D01*
G01X25171Y34848D01*
G01X25196Y34797D01*
G01X25196Y34696D01*
G01X25171Y34645D01*
G01X25120Y34594D01*
G01X25069Y34569D01*
G01X24993Y34543D01*
G01X24866Y34543D01*
G01X24790Y34569D01*
G01X24739Y34594D01*
G01X24688Y34645D01*
G01X24663Y34696D01*
G01X24663Y34797D01*
G01X24688Y34848D01*
G01X24739Y34899D01*
G01X24790Y34924D01*
G01X24866Y34924D01*
G01X24866Y34797D02*
G01X24866Y34924D01*
G01X25196Y35092D02*
G01X24663Y35092D01*
G01X25196Y35092D02*
G01X24663Y35448D01*
G01X25196Y35448D02*
G01X24663Y35448D01*
G01X25196Y35615D02*
G01X24663Y35615D01*
G01X25196Y35615D02*
G01X25196Y35793D01*
G01X25171Y35869D01*
G01X25120Y35920D01*
G01X25069Y35946D01*
G01X24993Y35971D01*
G01X24866Y35971D01*
G01X24790Y35946D01*
G01X24739Y35920D01*
G01X24688Y35869D01*
G01X24663Y35793D01*
G01X24663Y35615D01*
G01X25196Y32003D02*
G01X24663Y32003D01*
G01X25196Y32003D02*
G01X25196Y32232D01*
G01X25171Y32308D01*
G01X25145Y32334D01*
G01X25095Y32359D01*
G01X25044Y32359D01*
G01X24993Y32334D01*
G01X24968Y32308D01*
G01X24942Y32232D01*
G01X24942Y32003D01*
G01X24942Y32181D02*
G01X24663Y32359D01*
G01X25120Y32882D02*
G01X25171Y32831D01*
G01X25196Y32755D01*
G01X25196Y32654D01*
G01X25171Y32577D01*
G01X25120Y32527D01*
G01X25069Y32527D01*
G01X25018Y32552D01*
G01X24993Y32577D01*
G01X24968Y32628D01*
G01X24917Y32781D01*
G01X24891Y32831D01*
G01X24866Y32857D01*
G01X24815Y32882D01*
G01X24739Y32882D01*
G01X24688Y32831D01*
G01X24663Y32755D01*
G01X24663Y32654D01*
G01X24688Y32577D01*
G01X24739Y32527D01*
G01X25196Y33228D02*
G01X24663Y33228D01*
G01X25196Y33050D02*
G01X25196Y33406D01*
G01X25196Y29463D02*
G01X24663Y29667D01*
G01X25196Y29870D02*
G01X24663Y29667D01*
G01X25069Y30418D02*
G01X25120Y30393D01*
G01X25171Y30342D01*
G01X25196Y30291D01*
G01X25196Y30190D01*
G01X25171Y30139D01*
G01X25120Y30088D01*
G01X25069Y30063D01*
G01X24993Y30037D01*
G01X24866Y30037D01*
G01X24790Y30063D01*
G01X24739Y30088D01*
G01X24688Y30139D01*
G01X24663Y30190D01*
G01X24663Y30291D01*
G01X24688Y30342D01*
G01X24739Y30393D01*
G01X24790Y30418D01*
G01X25069Y30967D02*
G01X25120Y30942D01*
G01X25171Y30891D01*
G01X25196Y30840D01*
G01X25196Y30739D01*
G01X25171Y30688D01*
G01X25120Y30637D01*
G01X25069Y30612D01*
G01X24993Y30586D01*
G01X24866Y30586D01*
G01X24790Y30612D01*
G01X24739Y30637D01*
G01X24688Y30688D01*
G01X24663Y30739D01*
G01X24663Y30840D01*
G01X24688Y30891D01*
G01X24739Y30942D01*
G01X24790Y30967D01*
G01X25308Y27200D02*
G01X24579Y26923D01*
G01X25308Y27200D02*
G01X24579Y27477D01*
G01X24823Y27028D02*
G01X24823Y27373D01*
G01X25308Y27774D02*
G01X25308Y28155D01*
G01X25031Y27950D01*
G01X25031Y28054D01*
G01X24996Y28122D01*
G01X24960Y28155D01*
G01X24856Y28191D01*
G01X24787Y28191D01*
G01X24683Y28155D01*
G01X24615Y28087D01*
G01X24579Y27983D01*
G01X24579Y27878D01*
G01X24615Y27774D01*
G01X24650Y27741D01*
G01X24719Y27706D01*
G01X25308Y24660D02*
G01X24579Y24383D01*
G01X25308Y24660D02*
G01X24579Y24937D01*
G01X24823Y24488D02*
G01X24823Y24833D01*
G01X25133Y25201D02*
G01X25168Y25201D01*
G01X25237Y25234D01*
G01X25272Y25270D01*
G01X25308Y25338D01*
G01X25308Y25478D01*
G01X25272Y25547D01*
G01X25237Y25582D01*
G01X25168Y25615D01*
G01X25100Y25615D01*
G01X25031Y25582D01*
G01X24927Y25514D01*
G01X24579Y25166D01*
G01X24579Y25651D01*
G01X25308Y22374D02*
G01X24579Y22097D01*
G01X25308Y22374D02*
G01X24579Y22651D01*
G01X24823Y22202D02*
G01X24823Y22547D01*
G01X25168Y22880D02*
G01X25204Y22948D01*
G01X25308Y23052D01*
G01X24579Y23052D01*
G01X25308Y19834D02*
G01X24579Y19557D01*
G01X25308Y19834D02*
G01X24579Y20111D01*
G01X24823Y19662D02*
G01X24823Y20007D01*
G01X25308Y20548D02*
G01X25272Y20444D01*
G01X25168Y20375D01*
G01X24996Y20340D01*
G01X24891Y20340D01*
G01X24719Y20375D01*
G01X24615Y20444D01*
G01X24579Y20548D01*
G01X24579Y20617D01*
G01X24615Y20721D01*
G01X24719Y20789D01*
G01X24891Y20825D01*
G01X24996Y20825D01*
G01X25168Y20789D01*
G01X25272Y20721D01*
G01X25308Y20617D01*
G01X25308Y20548D01*
G01X25168Y17017D02*
G01X25204Y17086D01*
G01X25308Y17190D01*
G01X24579Y17190D01*
G01X25308Y17835D02*
G01X25308Y17487D01*
G01X24996Y17454D01*
G01X25031Y17487D01*
G01X25064Y17591D01*
G01X25064Y17696D01*
G01X25031Y17800D01*
G01X24960Y17868D01*
G01X24856Y17904D01*
G01X24787Y17904D01*
G01X24683Y17868D01*
G01X24615Y17800D01*
G01X24579Y17696D01*
G01X24579Y17591D01*
G01X24615Y17487D01*
G01X24650Y17454D01*
G01X24719Y17419D01*
G01X25168Y14477D02*
G01X25204Y14546D01*
G01X25308Y14650D01*
G01X24579Y14650D01*
G01X25308Y15227D02*
G01X24823Y14879D01*
G01X24823Y15399D01*
G01X25308Y15227D02*
G01X24579Y15227D01*
G01X25168Y11683D02*
G01X25204Y11752D01*
G01X25308Y11856D01*
G01X24579Y11856D01*
G01X25204Y12501D02*
G01X25272Y12466D01*
G01X25308Y12362D01*
G01X25308Y12293D01*
G01X25272Y12189D01*
G01X25168Y12120D01*
G01X24996Y12085D01*
G01X24823Y12085D01*
G01X24683Y12120D01*
G01X24615Y12189D01*
G01X24579Y12293D01*
G01X24579Y12329D01*
G01X24615Y12433D01*
G01X24683Y12501D01*
G01X24787Y12534D01*
G01X24823Y12534D01*
G01X24927Y12501D01*
G01X24996Y12433D01*
G01X25031Y12329D01*
G01X25031Y12293D01*
G01X24996Y12189D01*
G01X24927Y12120D01*
G01X24823Y12085D01*
G01X25168Y9397D02*
G01X25204Y9466D01*
G01X25308Y9570D01*
G01X24579Y9570D01*
G01X25308Y10007D02*
G01X25272Y9903D01*
G01X25168Y9834D01*
G01X24996Y9799D01*
G01X24891Y9799D01*
G01X24719Y9834D01*
G01X24615Y9903D01*
G01X24579Y10007D01*
G01X24579Y10076D01*
G01X24615Y10180D01*
G01X24719Y10248D01*
G01X24891Y10284D01*
G01X24996Y10284D01*
G01X25168Y10248D01*
G01X25272Y10180D01*
G01X25308Y10076D01*
G01X25308Y10007D01*
G54D10*
G75*
G01X1778Y10414D02*
G3X1778Y11938I0J762D01*
G01*
G75*
G01X39116Y17526D02*
G03X39116Y17526I-1016J0D01*
G01*
G75*
G01X39116Y20066D02*
G03X39116Y20066I-1016J0D01*
G01*
G75*
G01X39116Y25146D02*
G03X39116Y25146I-1016J0D01*
G01*
G75*
G01X39116Y9906D02*
G03X39116Y9906I-1016J0D01*
G01*
G75*
G01X23876Y9906D02*
G03X23876Y9906I-1016J0D01*
G01*
M00*
M02*
