G04 ---------------------------- Layer name :TOP LAYER*
G04 EasyEDA v5.8.22, Sun, 09 Dec 2018 21:39:12 GMT*
G04 2c5bf0bc6ca0461b88a5c6b9ef220c93*
G04 Gerber Generator version 0.2*
G04 Scale: 100 percent, Rotated: No, Reflected: No *
G04 Dimensions in millimeters *
G04 leading zeros omitted , absolute positions ,3 integer and 3 decimal *
%FSLAX33Y33*%
%MOMM*%
G90*
G71D02*

%ADD11C,0.799998*%
%ADD12R,2.999994X1.199998*%
%ADD13C,1.599997*%
%ADD14C,1.600200*%

%LPD*%
G36*
G01X36391Y1699D02*
G01X1453Y1460D01*
G01X1453Y6779D01*
G01X1454Y6776D01*
G01X1458Y6736D01*
G01X1463Y6697D01*
G01X1468Y6658D01*
G01X1475Y6618D01*
G01X1483Y6579D01*
G01X1492Y6540D01*
G01X1502Y6502D01*
G01X1513Y6463D01*
G01X1525Y6425D01*
G01X1537Y6387D01*
G01X1551Y6349D01*
G01X1566Y6312D01*
G01X1581Y6276D01*
G01X1597Y6239D01*
G01X1615Y6203D01*
G01X1633Y6168D01*
G01X1652Y6133D01*
G01X1672Y6098D01*
G01X1693Y6064D01*
G01X1714Y6031D01*
G01X1737Y5998D01*
G01X1760Y5965D01*
G01X1784Y5934D01*
G01X1809Y5902D01*
G01X1835Y5872D01*
G01X1847Y5858D01*
G01X1847Y4063D01*
G01X1848Y4040D01*
G01X1848Y4017D01*
G01X1849Y3994D01*
G01X1851Y3972D01*
G01X1853Y3949D01*
G01X1855Y3926D01*
G01X1858Y3903D01*
G01X1861Y3880D01*
G01X1865Y3858D01*
G01X1869Y3835D01*
G01X1874Y3812D01*
G01X1879Y3790D01*
G01X1884Y3768D01*
G01X1890Y3745D01*
G01X1897Y3723D01*
G01X1903Y3701D01*
G01X1910Y3680D01*
G01X1918Y3658D01*
G01X1926Y3636D01*
G01X1934Y3615D01*
G01X1943Y3594D01*
G01X1952Y3573D01*
G01X1962Y3552D01*
G01X1972Y3531D01*
G01X1982Y3510D01*
G01X1993Y3490D01*
G01X2004Y3470D01*
G01X2016Y3450D01*
G01X2028Y3431D01*
G01X2040Y3411D01*
G01X2053Y3392D01*
G01X2066Y3373D01*
G01X2079Y3354D01*
G01X2093Y3336D01*
G01X2107Y3318D01*
G01X2122Y3300D01*
G01X2136Y3282D01*
G01X2152Y3265D01*
G01X2167Y3248D01*
G01X2183Y3231D01*
G01X2199Y3215D01*
G01X2453Y2961D01*
G01X2469Y2945D01*
G01X2486Y2929D01*
G01X2503Y2914D01*
G01X2520Y2898D01*
G01X2538Y2884D01*
G01X2556Y2869D01*
G01X2574Y2855D01*
G01X2592Y2841D01*
G01X2611Y2828D01*
G01X2630Y2815D01*
G01X2649Y2802D01*
G01X2669Y2790D01*
G01X2688Y2778D01*
G01X2708Y2766D01*
G01X2728Y2755D01*
G01X2748Y2744D01*
G01X2769Y2734D01*
G01X2790Y2724D01*
G01X2811Y2714D01*
G01X2832Y2705D01*
G01X2853Y2696D01*
G01X2874Y2688D01*
G01X2896Y2680D01*
G01X2918Y2672D01*
G01X2939Y2665D01*
G01X2961Y2659D01*
G01X2983Y2652D01*
G01X3006Y2646D01*
G01X3028Y2641D01*
G01X3050Y2636D01*
G01X3073Y2631D01*
G01X3096Y2627D01*
G01X3118Y2623D01*
G01X3141Y2620D01*
G01X3164Y2617D01*
G01X3187Y2615D01*
G01X3210Y2613D01*
G01X3232Y2611D01*
G01X3255Y2610D01*
G01X3278Y2610D01*
G01X3301Y2609D01*
G01X25399Y2609D01*
G01X25422Y2610D01*
G01X25445Y2610D01*
G01X25468Y2611D01*
G01X25491Y2613D01*
G01X25514Y2615D01*
G01X25537Y2617D01*
G01X25560Y2620D01*
G01X25583Y2623D01*
G01X25605Y2627D01*
G01X25628Y2631D01*
G01X25650Y2636D01*
G01X25673Y2641D01*
G01X25695Y2646D01*
G01X25717Y2652D01*
G01X25740Y2659D01*
G01X25761Y2665D01*
G01X25783Y2672D01*
G01X25805Y2680D01*
G01X25827Y2688D01*
G01X25848Y2696D01*
G01X25869Y2705D01*
G01X25890Y2714D01*
G01X25911Y2724D01*
G01X25932Y2734D01*
G01X25952Y2744D01*
G01X25973Y2755D01*
G01X25993Y2766D01*
G01X26013Y2778D01*
G01X26032Y2790D01*
G01X26052Y2802D01*
G01X26071Y2815D01*
G01X26090Y2828D01*
G01X26108Y2841D01*
G01X26127Y2855D01*
G01X26145Y2869D01*
G01X26163Y2884D01*
G01X26180Y2898D01*
G01X26198Y2914D01*
G01X26215Y2929D01*
G01X26232Y2945D01*
G01X26248Y2961D01*
G01X26756Y3469D01*
G01X26772Y3485D01*
G01X26788Y3502D01*
G01X26803Y3519D01*
G01X26818Y3536D01*
G01X26833Y3554D01*
G01X26848Y3572D01*
G01X26862Y3590D01*
G01X26876Y3608D01*
G01X26889Y3627D01*
G01X26902Y3646D01*
G01X26915Y3665D01*
G01X26927Y3685D01*
G01X26939Y3704D01*
G01X26950Y3724D01*
G01X26962Y3744D01*
G01X26972Y3764D01*
G01X26983Y3785D01*
G01X26993Y3806D01*
G01X27002Y3827D01*
G01X27012Y3848D01*
G01X27020Y3869D01*
G01X27029Y3890D01*
G01X27037Y3912D01*
G01X27044Y3934D01*
G01X27051Y3955D01*
G01X27058Y3977D01*
G01X27065Y3999D01*
G01X27070Y4022D01*
G01X27076Y4044D01*
G01X27081Y4066D01*
G01X27085Y4089D01*
G01X27090Y4112D01*
G01X27093Y4134D01*
G01X27097Y4157D01*
G01X27099Y4180D01*
G01X27102Y4203D01*
G01X27104Y4226D01*
G01X27105Y4248D01*
G01X27107Y4271D01*
G01X27107Y4294D01*
G01X27107Y4317D01*
G01X27107Y29728D01*
G01X30074Y32695D01*
G01X30090Y32711D01*
G01X30106Y32728D01*
G01X30121Y32745D01*
G01X30136Y32762D01*
G01X30151Y32780D01*
G01X30166Y32798D01*
G01X30180Y32816D01*
G01X30194Y32834D01*
G01X30207Y32853D01*
G01X30220Y32872D01*
G01X30233Y32891D01*
G01X30245Y32911D01*
G01X30257Y32930D01*
G01X30268Y32950D01*
G01X30280Y32970D01*
G01X30290Y32990D01*
G01X30301Y33011D01*
G01X30311Y33032D01*
G01X30320Y33053D01*
G01X30330Y33074D01*
G01X30338Y33095D01*
G01X30347Y33116D01*
G01X30355Y33138D01*
G01X30362Y33160D01*
G01X30369Y33181D01*
G01X30376Y33203D01*
G01X30383Y33225D01*
G01X30388Y33248D01*
G01X30394Y33270D01*
G01X30399Y33292D01*
G01X30403Y33315D01*
G01X30408Y33338D01*
G01X30411Y33360D01*
G01X30415Y33383D01*
G01X30417Y33406D01*
G01X30420Y33429D01*
G01X30422Y33452D01*
G01X30423Y33474D01*
G01X30425Y33497D01*
G01X30425Y33520D01*
G01X30425Y33543D01*
G01X30425Y42181D01*
G01X30725Y42181D01*
G01X30745Y42181D01*
G01X30765Y42182D01*
G01X30785Y42183D01*
G01X30805Y42185D01*
G01X30825Y42187D01*
G01X30845Y42190D01*
G01X30864Y42193D01*
G01X30884Y42197D01*
G01X30903Y42201D01*
G01X30923Y42206D01*
G01X30942Y42211D01*
G01X30961Y42216D01*
G01X30980Y42223D01*
G01X30999Y42229D01*
G01X31018Y42236D01*
G01X31036Y42244D01*
G01X31054Y42252D01*
G01X31073Y42260D01*
G01X31090Y42269D01*
G01X31108Y42278D01*
G01X31125Y42288D01*
G01X31143Y42298D01*
G01X31159Y42309D01*
G01X31176Y42320D01*
G01X31192Y42331D01*
G01X31208Y42343D01*
G01X31224Y42355D01*
G01X31240Y42368D01*
G01X31255Y42381D01*
G01X31270Y42395D01*
G01X31284Y42408D01*
G01X31298Y42422D01*
G01X31312Y42437D01*
G01X31325Y42452D01*
G01X31338Y42467D01*
G01X31351Y42482D01*
G01X31363Y42498D01*
G01X31375Y42514D01*
G01X31376Y42515D01*
G01X31378Y42512D01*
G01X31390Y42496D01*
G01X31402Y42481D01*
G01X31415Y42465D01*
G01X31428Y42450D01*
G01X31441Y42435D01*
G01X31455Y42421D01*
G01X31469Y42407D01*
G01X31483Y42393D01*
G01X31498Y42380D01*
G01X31513Y42367D01*
G01X31529Y42354D01*
G01X31544Y42342D01*
G01X31560Y42330D01*
G01X31577Y42318D01*
G01X31593Y42307D01*
G01X31610Y42297D01*
G01X31627Y42287D01*
G01X31645Y42277D01*
G01X31662Y42268D01*
G01X31680Y42259D01*
G01X31698Y42250D01*
G01X31717Y42242D01*
G01X31735Y42235D01*
G01X31754Y42228D01*
G01X31773Y42221D01*
G01X31792Y42215D01*
G01X31811Y42209D01*
G01X31830Y42204D01*
G01X31849Y42199D01*
G01X31869Y42195D01*
G01X31889Y42192D01*
G01X31908Y42188D01*
G01X31928Y42186D01*
G01X31948Y42183D01*
G01X31968Y42182D01*
G01X31988Y42180D01*
G01X32007Y42180D01*
G01X32027Y42179D01*
G01X35027Y42179D01*
G01X35047Y42180D01*
G01X35067Y42180D01*
G01X35087Y42182D01*
G01X35107Y42183D01*
G01X35127Y42186D01*
G01X35147Y42188D01*
G01X35166Y42192D01*
G01X35186Y42195D01*
G01X35205Y42199D01*
G01X35225Y42204D01*
G01X35244Y42209D01*
G01X35263Y42215D01*
G01X35282Y42221D01*
G01X35301Y42228D01*
G01X35320Y42235D01*
G01X35338Y42242D01*
G01X35356Y42250D01*
G01X35375Y42259D01*
G01X35392Y42268D01*
G01X35410Y42277D01*
G01X35427Y42287D01*
G01X35445Y42297D01*
G01X35461Y42307D01*
G01X35478Y42318D01*
G01X35494Y42330D01*
G01X35510Y42342D01*
G01X35526Y42354D01*
G01X35542Y42367D01*
G01X35557Y42380D01*
G01X35572Y42393D01*
G01X35586Y42407D01*
G01X35600Y42421D01*
G01X35614Y42435D01*
G01X35627Y42450D01*
G01X35640Y42465D01*
G01X35653Y42481D01*
G01X35665Y42496D01*
G01X35677Y42512D01*
G01X35688Y42529D01*
G01X35699Y42545D01*
G01X35710Y42562D01*
G01X35720Y42579D01*
G01X35730Y42597D01*
G01X35739Y42614D01*
G01X35748Y42632D01*
G01X35757Y42650D01*
G01X35765Y42669D01*
G01X35772Y42687D01*
G01X35779Y42706D01*
G01X35786Y42725D01*
G01X35792Y42744D01*
G01X35798Y42763D01*
G01X35803Y42782D01*
G01X35807Y42801D01*
G01X35812Y42821D01*
G01X35815Y42841D01*
G01X35818Y42860D01*
G01X35821Y42880D01*
G01X35823Y42900D01*
G01X35825Y42920D01*
G01X35826Y42940D01*
G01X35827Y42959D01*
G01X35827Y42979D01*
G01X35827Y44179D01*
G01X35827Y44199D01*
G01X35826Y44219D01*
G01X35825Y44239D01*
G01X35823Y44259D01*
G01X35821Y44279D01*
G01X35818Y44299D01*
G01X35815Y44318D01*
G01X35812Y44338D01*
G01X35807Y44357D01*
G01X35803Y44377D01*
G01X35798Y44396D01*
G01X35792Y44415D01*
G01X35786Y44434D01*
G01X35779Y44453D01*
G01X35772Y44472D01*
G01X35765Y44490D01*
G01X35757Y44508D01*
G01X35748Y44527D01*
G01X35739Y44544D01*
G01X35730Y44562D01*
G01X35720Y44579D01*
G01X35710Y44597D01*
G01X35699Y44613D01*
G01X35688Y44630D01*
G01X35677Y44646D01*
G01X35665Y44662D01*
G01X35653Y44678D01*
G01X35640Y44694D01*
G01X35627Y44709D01*
G01X35614Y44724D01*
G01X35600Y44738D01*
G01X35586Y44752D01*
G01X35572Y44766D01*
G01X35557Y44779D01*
G01X35557Y44779D01*
G01X35827Y44779D01*
G01X35847Y44780D01*
G01X35867Y44780D01*
G01X35887Y44782D01*
G01X35907Y44783D01*
G01X35927Y44786D01*
G01X35947Y44788D01*
G01X35966Y44792D01*
G01X35986Y44795D01*
G01X36005Y44799D01*
G01X36025Y44804D01*
G01X36044Y44809D01*
G01X36063Y44815D01*
G01X36082Y44821D01*
G01X36101Y44828D01*
G01X36120Y44835D01*
G01X36138Y44842D01*
G01X36156Y44850D01*
G01X36175Y44859D01*
G01X36192Y44868D01*
G01X36210Y44877D01*
G01X36227Y44887D01*
G01X36245Y44897D01*
G01X36261Y44907D01*
G01X36278Y44918D01*
G01X36294Y44930D01*
G01X36310Y44942D01*
G01X36326Y44954D01*
G01X36342Y44967D01*
G01X36357Y44980D01*
G01X36372Y44993D01*
G01X36386Y45007D01*
G01X36400Y45021D01*
G01X36414Y45035D01*
G01X36427Y45050D01*
G01X36440Y45065D01*
G01X36453Y45081D01*
G01X36465Y45096D01*
G01X36477Y45112D01*
G01X36488Y45129D01*
G01X36499Y45145D01*
G01X36510Y45162D01*
G01X36520Y45179D01*
G01X36530Y45197D01*
G01X36539Y45214D01*
G01X36548Y45232D01*
G01X36557Y45250D01*
G01X36565Y45269D01*
G01X36572Y45287D01*
G01X36579Y45306D01*
G01X36586Y45325D01*
G01X36592Y45344D01*
G01X36598Y45363D01*
G01X36603Y45382D01*
G01X36607Y45401D01*
G01X36612Y45421D01*
G01X36615Y45441D01*
G01X36618Y45460D01*
G01X36621Y45480D01*
G01X36623Y45500D01*
G01X36625Y45520D01*
G01X36626Y45540D01*
G01X36627Y45559D01*
G01X36627Y45579D01*
G01X36627Y45879D01*
G01X35078Y45879D01*
G01X35078Y44978D01*
G01X35067Y44978D01*
G01X35047Y44979D01*
G01X35027Y44979D01*
G01X33578Y44979D01*
G01X33578Y45879D01*
G01X32227Y45879D01*
G01X32227Y46479D01*
G01X33578Y46479D01*
G01X33578Y46805D01*
G01X35078Y46805D01*
G01X35078Y46479D01*
G01X36627Y46479D01*
G01X36627Y46779D01*
G01X36627Y46799D01*
G01X36627Y46805D01*
G01X42741Y46805D01*
G01X42741Y28885D01*
G01X39602Y28885D01*
G01X39588Y28898D01*
G01X39557Y28924D01*
G01X39526Y28949D01*
G01X39517Y28955D01*
G01X39526Y28962D01*
G01X39557Y28987D01*
G01X39588Y29013D01*
G01X39618Y29039D01*
G01X39647Y29066D01*
G01X39675Y29094D01*
G01X39703Y29123D01*
G01X39730Y29152D01*
G01X39757Y29182D01*
G01X39782Y29212D01*
G01X39807Y29244D01*
G01X39831Y29275D01*
G01X39855Y29308D01*
G01X39877Y29341D01*
G01X39899Y29374D01*
G01X39919Y29408D01*
G01X39939Y29443D01*
G01X39958Y29478D01*
G01X39977Y29513D01*
G01X39994Y29549D01*
G01X40010Y29585D01*
G01X40026Y29622D01*
G01X40041Y29660D01*
G01X40054Y29697D01*
G01X40067Y29735D01*
G01X40079Y29773D01*
G01X40089Y29812D01*
G01X40093Y29825D01*
G01X38722Y29825D01*
G01X38722Y29275D01*
G01X38684Y29279D01*
G01X38644Y29282D01*
G01X38604Y29284D01*
G01X38564Y29285D01*
G01X38544Y29286D01*
G01X37655Y29286D01*
G01X37635Y29285D01*
G01X37595Y29284D01*
G01X37555Y29282D01*
G01X37515Y29279D01*
G01X37477Y29275D01*
G01X37477Y29825D01*
G01X36106Y29825D01*
G01X36109Y29812D01*
G01X36120Y29773D01*
G01X36132Y29735D01*
G01X36145Y29697D01*
G01X36158Y29660D01*
G01X36173Y29622D01*
G01X36189Y29585D01*
G01X36205Y29549D01*
G01X36222Y29513D01*
G01X36240Y29478D01*
G01X36259Y29443D01*
G01X36279Y29408D01*
G01X36300Y29374D01*
G01X36322Y29341D01*
G01X36344Y29308D01*
G01X36367Y29275D01*
G01X36392Y29244D01*
G01X36417Y29212D01*
G01X36442Y29182D01*
G01X36469Y29152D01*
G01X36496Y29123D01*
G01X36524Y29094D01*
G01X36552Y29066D01*
G01X36581Y29039D01*
G01X36611Y29013D01*
G01X36642Y28987D01*
G01X36673Y28962D01*
G01X36682Y28955D01*
G01X36673Y28949D01*
G01X36642Y28924D01*
G01X36611Y28898D01*
G01X36581Y28872D01*
G01X36552Y28845D01*
G01X36524Y28817D01*
G01X36496Y28788D01*
G01X36469Y28759D01*
G01X36442Y28729D01*
G01X36417Y28699D01*
G01X36392Y28667D01*
G01X36367Y28635D01*
G01X36344Y28603D01*
G01X36322Y28570D01*
G01X36300Y28537D01*
G01X36279Y28503D01*
G01X36259Y28468D01*
G01X36240Y28433D01*
G01X36222Y28397D01*
G01X36205Y28361D01*
G01X36189Y28326D01*
G01X36173Y28289D01*
G01X36158Y28251D01*
G01X36145Y28214D01*
G01X36132Y28176D01*
G01X36120Y28138D01*
G01X36109Y28099D01*
G01X36100Y28061D01*
G01X36091Y28022D01*
G01X36083Y27983D01*
G01X36076Y27944D01*
G01X36070Y27905D01*
G01X36065Y27864D01*
G01X36061Y27825D01*
G01X36058Y27785D01*
G01X36056Y27745D01*
G01X36055Y27705D01*
G01X36055Y27665D01*
G01X36056Y27626D01*
G01X36058Y27586D01*
G01X36061Y27546D01*
G01X36065Y27506D01*
G01X36070Y27466D01*
G01X36076Y27427D01*
G01X36083Y27388D01*
G01X36091Y27349D01*
G01X36100Y27310D01*
G01X36109Y27272D01*
G01X36120Y27233D01*
G01X36132Y27195D01*
G01X36145Y27157D01*
G01X36158Y27120D01*
G01X36173Y27082D01*
G01X36189Y27045D01*
G01X36205Y27009D01*
G01X36222Y26973D01*
G01X36240Y26938D01*
G01X36259Y26903D01*
G01X36279Y26868D01*
G01X36300Y26834D01*
G01X36322Y26801D01*
G01X36344Y26768D01*
G01X36367Y26735D01*
G01X36392Y26704D01*
G01X36417Y26672D01*
G01X36442Y26642D01*
G01X36469Y26612D01*
G01X36496Y26583D01*
G01X36524Y26554D01*
G01X36552Y26526D01*
G01X36581Y26499D01*
G01X36611Y26473D01*
G01X36642Y26447D01*
G01X36673Y26422D01*
G01X36682Y26415D01*
G01X36673Y26409D01*
G01X36642Y26384D01*
G01X36611Y26358D01*
G01X36581Y26332D01*
G01X36552Y26305D01*
G01X36524Y26277D01*
G01X36496Y26248D01*
G01X36469Y26219D01*
G01X36442Y26189D01*
G01X36417Y26159D01*
G01X36392Y26127D01*
G01X36367Y26095D01*
G01X36344Y26063D01*
G01X36322Y26030D01*
G01X36300Y25997D01*
G01X36279Y25963D01*
G01X36259Y25928D01*
G01X36240Y25893D01*
G01X36222Y25857D01*
G01X36205Y25821D01*
G01X36189Y25786D01*
G01X36173Y25749D01*
G01X36158Y25711D01*
G01X36145Y25674D01*
G01X36132Y25636D01*
G01X36120Y25598D01*
G01X36109Y25559D01*
G01X36100Y25521D01*
G01X36091Y25482D01*
G01X36083Y25443D01*
G01X36076Y25404D01*
G01X36070Y25365D01*
G01X36065Y25324D01*
G01X36061Y25285D01*
G01X36058Y25245D01*
G01X36056Y25205D01*
G01X36055Y25165D01*
G01X36055Y25125D01*
G01X36056Y25086D01*
G01X36058Y25046D01*
G01X36061Y25006D01*
G01X36065Y24966D01*
G01X36070Y24926D01*
G01X36076Y24887D01*
G01X36083Y24848D01*
G01X36091Y24809D01*
G01X36100Y24770D01*
G01X36109Y24732D01*
G01X36120Y24693D01*
G01X36132Y24655D01*
G01X36145Y24617D01*
G01X36158Y24580D01*
G01X36173Y24542D01*
G01X36189Y24505D01*
G01X36205Y24469D01*
G01X36222Y24433D01*
G01X36240Y24398D01*
G01X36259Y24363D01*
G01X36279Y24328D01*
G01X36300Y24294D01*
G01X36322Y24261D01*
G01X36344Y24228D01*
G01X36367Y24195D01*
G01X36392Y24164D01*
G01X36417Y24132D01*
G01X36442Y24102D01*
G01X36469Y24072D01*
G01X36496Y24043D01*
G01X36524Y24014D01*
G01X36552Y23986D01*
G01X36581Y23959D01*
G01X36611Y23933D01*
G01X36642Y23907D01*
G01X36673Y23882D01*
G01X36682Y23875D01*
G01X36673Y23869D01*
G01X36642Y23844D01*
G01X36611Y23818D01*
G01X36581Y23792D01*
G01X36552Y23765D01*
G01X36524Y23737D01*
G01X36496Y23708D01*
G01X36469Y23679D01*
G01X36442Y23649D01*
G01X36417Y23619D01*
G01X36392Y23587D01*
G01X36367Y23555D01*
G01X36344Y23523D01*
G01X36322Y23490D01*
G01X36300Y23457D01*
G01X36279Y23423D01*
G01X36259Y23388D01*
G01X36240Y23353D01*
G01X36222Y23317D01*
G01X36205Y23281D01*
G01X36189Y23246D01*
G01X36173Y23209D01*
G01X36158Y23171D01*
G01X36145Y23134D01*
G01X36132Y23096D01*
G01X36120Y23058D01*
G01X36109Y23019D01*
G01X36100Y22981D01*
G01X36091Y22942D01*
G01X36083Y22903D01*
G01X36076Y22864D01*
G01X36070Y22825D01*
G01X36065Y22784D01*
G01X36061Y22745D01*
G01X36058Y22705D01*
G01X36056Y22665D01*
G01X36055Y22625D01*
G01X36055Y22585D01*
G01X36056Y22546D01*
G01X36058Y22506D01*
G01X36061Y22466D01*
G01X36065Y22426D01*
G01X36070Y22386D01*
G01X36076Y22347D01*
G01X36083Y22308D01*
G01X36091Y22269D01*
G01X36100Y22230D01*
G01X36109Y22192D01*
G01X36120Y22153D01*
G01X36132Y22115D01*
G01X36145Y22077D01*
G01X36158Y22040D01*
G01X36173Y22002D01*
G01X36189Y21965D01*
G01X36205Y21929D01*
G01X36222Y21893D01*
G01X36240Y21858D01*
G01X36259Y21823D01*
G01X36279Y21788D01*
G01X36300Y21754D01*
G01X36322Y21721D01*
G01X36344Y21688D01*
G01X36367Y21655D01*
G01X36392Y21624D01*
G01X36417Y21592D01*
G01X36442Y21562D01*
G01X36469Y21532D01*
G01X36496Y21503D01*
G01X36524Y21474D01*
G01X36552Y21446D01*
G01X36581Y21419D01*
G01X36611Y21393D01*
G01X36642Y21367D01*
G01X36673Y21342D01*
G01X36682Y21335D01*
G01X36673Y21329D01*
G01X36642Y21304D01*
G01X36611Y21278D01*
G01X36581Y21252D01*
G01X36552Y21225D01*
G01X36524Y21197D01*
G01X36496Y21168D01*
G01X36469Y21139D01*
G01X36442Y21109D01*
G01X36417Y21079D01*
G01X36392Y21047D01*
G01X36367Y21015D01*
G01X36344Y20983D01*
G01X36322Y20950D01*
G01X36300Y20917D01*
G01X36279Y20883D01*
G01X36259Y20848D01*
G01X36240Y20813D01*
G01X36222Y20777D01*
G01X36205Y20741D01*
G01X36189Y20706D01*
G01X36173Y20669D01*
G01X36158Y20631D01*
G01X36145Y20594D01*
G01X36132Y20556D01*
G01X36120Y20518D01*
G01X36109Y20479D01*
G01X36100Y20441D01*
G01X36091Y20402D01*
G01X36083Y20363D01*
G01X36076Y20324D01*
G01X36070Y20285D01*
G01X36065Y20244D01*
G01X36061Y20205D01*
G01X36058Y20165D01*
G01X36056Y20125D01*
G01X36055Y20085D01*
G01X36055Y20045D01*
G01X36056Y20006D01*
G01X36058Y19966D01*
G01X36061Y19926D01*
G01X36065Y19886D01*
G01X36070Y19846D01*
G01X36076Y19807D01*
G01X36083Y19768D01*
G01X36091Y19729D01*
G01X36100Y19690D01*
G01X36109Y19652D01*
G01X36120Y19613D01*
G01X36132Y19575D01*
G01X36145Y19537D01*
G01X36158Y19500D01*
G01X36173Y19462D01*
G01X36189Y19425D01*
G01X36205Y19389D01*
G01X36222Y19353D01*
G01X36240Y19318D01*
G01X36259Y19283D01*
G01X36279Y19248D01*
G01X36300Y19214D01*
G01X36322Y19181D01*
G01X36344Y19148D01*
G01X36367Y19115D01*
G01X36392Y19084D01*
G01X36417Y19052D01*
G01X36442Y19022D01*
G01X36469Y18992D01*
G01X36496Y18963D01*
G01X36524Y18934D01*
G01X36552Y18906D01*
G01X36581Y18879D01*
G01X36611Y18853D01*
G01X36642Y18827D01*
G01X36673Y18802D01*
G01X36682Y18795D01*
G01X36673Y18789D01*
G01X36642Y18764D01*
G01X36611Y18738D01*
G01X36581Y18712D01*
G01X36552Y18685D01*
G01X36524Y18657D01*
G01X36496Y18628D01*
G01X36469Y18599D01*
G01X36442Y18569D01*
G01X36417Y18539D01*
G01X36392Y18507D01*
G01X36367Y18475D01*
G01X36344Y18443D01*
G01X36322Y18410D01*
G01X36300Y18377D01*
G01X36279Y18343D01*
G01X36259Y18308D01*
G01X36240Y18273D01*
G01X36222Y18237D01*
G01X36205Y18201D01*
G01X36189Y18166D01*
G01X36173Y18129D01*
G01X36158Y18091D01*
G01X36145Y18054D01*
G01X36132Y18016D01*
G01X36120Y17978D01*
G01X36109Y17939D01*
G01X36100Y17901D01*
G01X36091Y17862D01*
G01X36083Y17823D01*
G01X36076Y17784D01*
G01X36070Y17745D01*
G01X36065Y17704D01*
G01X36061Y17665D01*
G01X36058Y17625D01*
G01X36056Y17585D01*
G01X36055Y17545D01*
G01X36055Y17505D01*
G01X36056Y17466D01*
G01X36058Y17426D01*
G01X36061Y17386D01*
G01X36065Y17346D01*
G01X36070Y17306D01*
G01X36076Y17267D01*
G01X36083Y17228D01*
G01X36091Y17189D01*
G01X36100Y17150D01*
G01X36109Y17112D01*
G01X36120Y17073D01*
G01X36132Y17035D01*
G01X36145Y16997D01*
G01X36158Y16960D01*
G01X36173Y16922D01*
G01X36189Y16885D01*
G01X36205Y16849D01*
G01X36222Y16813D01*
G01X36240Y16778D01*
G01X36259Y16743D01*
G01X36279Y16708D01*
G01X36300Y16674D01*
G01X36322Y16641D01*
G01X36344Y16608D01*
G01X36367Y16575D01*
G01X36392Y16544D01*
G01X36417Y16512D01*
G01X36442Y16482D01*
G01X36469Y16452D01*
G01X36496Y16423D01*
G01X36524Y16394D01*
G01X36552Y16366D01*
G01X36581Y16339D01*
G01X36611Y16313D01*
G01X36642Y16287D01*
G01X36673Y16262D01*
G01X36682Y16255D01*
G01X36673Y16249D01*
G01X36642Y16224D01*
G01X36611Y16198D01*
G01X36581Y16172D01*
G01X36552Y16145D01*
G01X36524Y16117D01*
G01X36496Y16088D01*
G01X36469Y16059D01*
G01X36442Y16029D01*
G01X36417Y15999D01*
G01X36392Y15967D01*
G01X36367Y15935D01*
G01X36344Y15903D01*
G01X36322Y15870D01*
G01X36300Y15837D01*
G01X36279Y15803D01*
G01X36259Y15768D01*
G01X36240Y15733D01*
G01X36222Y15697D01*
G01X36205Y15661D01*
G01X36189Y15626D01*
G01X36173Y15589D01*
G01X36158Y15551D01*
G01X36145Y15514D01*
G01X36132Y15476D01*
G01X36120Y15438D01*
G01X36109Y15399D01*
G01X36100Y15361D01*
G01X36091Y15322D01*
G01X36083Y15283D01*
G01X36076Y15244D01*
G01X36070Y15205D01*
G01X36065Y15164D01*
G01X36061Y15125D01*
G01X36058Y15085D01*
G01X36056Y15045D01*
G01X36055Y15005D01*
G01X36055Y14965D01*
G01X36056Y14926D01*
G01X36058Y14886D01*
G01X36061Y14846D01*
G01X36065Y14806D01*
G01X36070Y14766D01*
G01X36076Y14727D01*
G01X36083Y14688D01*
G01X36091Y14649D01*
G01X36100Y14610D01*
G01X36109Y14572D01*
G01X36120Y14533D01*
G01X36132Y14495D01*
G01X36145Y14457D01*
G01X36158Y14420D01*
G01X36173Y14382D01*
G01X36189Y14345D01*
G01X36205Y14309D01*
G01X36222Y14273D01*
G01X36240Y14238D01*
G01X36259Y14203D01*
G01X36279Y14168D01*
G01X36300Y14134D01*
G01X36322Y14101D01*
G01X36344Y14068D01*
G01X36367Y14035D01*
G01X36392Y14004D01*
G01X36417Y13972D01*
G01X36442Y13942D01*
G01X36469Y13912D01*
G01X36496Y13883D01*
G01X36524Y13854D01*
G01X36552Y13826D01*
G01X36581Y13799D01*
G01X36611Y13773D01*
G01X36642Y13747D01*
G01X36673Y13722D01*
G01X36682Y13715D01*
G01X36673Y13709D01*
G01X36642Y13684D01*
G01X36611Y13658D01*
G01X36581Y13632D01*
G01X36552Y13605D01*
G01X36524Y13577D01*
G01X36496Y13548D01*
G01X36469Y13519D01*
G01X36442Y13489D01*
G01X36417Y13459D01*
G01X36392Y13427D01*
G01X36367Y13395D01*
G01X36344Y13363D01*
G01X36322Y13330D01*
G01X36300Y13297D01*
G01X36279Y13263D01*
G01X36259Y13228D01*
G01X36240Y13193D01*
G01X36222Y13157D01*
G01X36205Y13121D01*
G01X36189Y13086D01*
G01X36173Y13049D01*
G01X36158Y13011D01*
G01X36145Y12974D01*
G01X36132Y12936D01*
G01X36120Y12898D01*
G01X36109Y12859D01*
G01X36100Y12821D01*
G01X36091Y12782D01*
G01X36083Y12743D01*
G01X36076Y12704D01*
G01X36070Y12665D01*
G01X36065Y12624D01*
G01X36061Y12585D01*
G01X36058Y12545D01*
G01X36056Y12505D01*
G01X36055Y12465D01*
G01X36055Y12425D01*
G01X36056Y12386D01*
G01X36058Y12346D01*
G01X36061Y12306D01*
G01X36065Y12266D01*
G01X36070Y12226D01*
G01X36076Y12187D01*
G01X36083Y12148D01*
G01X36091Y12109D01*
G01X36100Y12070D01*
G01X36109Y12032D01*
G01X36120Y11993D01*
G01X36132Y11955D01*
G01X36145Y11917D01*
G01X36158Y11880D01*
G01X36173Y11842D01*
G01X36189Y11805D01*
G01X36205Y11769D01*
G01X36222Y11733D01*
G01X36240Y11698D01*
G01X36259Y11663D01*
G01X36279Y11628D01*
G01X36300Y11594D01*
G01X36322Y11561D01*
G01X36344Y11528D01*
G01X36367Y11495D01*
G01X36392Y11464D01*
G01X36417Y11432D01*
G01X36442Y11402D01*
G01X36469Y11372D01*
G01X36496Y11343D01*
G01X36524Y11314D01*
G01X36552Y11286D01*
G01X36581Y11259D01*
G01X36611Y11233D01*
G01X36642Y11207D01*
G01X36673Y11182D01*
G01X36682Y11175D01*
G01X36673Y11169D01*
G01X36642Y11144D01*
G01X36611Y11118D01*
G01X36581Y11092D01*
G01X36552Y11065D01*
G01X36524Y11037D01*
G01X36496Y11008D01*
G01X36469Y10979D01*
G01X36442Y10949D01*
G01X36417Y10919D01*
G01X36392Y10887D01*
G01X36367Y10855D01*
G01X36344Y10823D01*
G01X36322Y10790D01*
G01X36300Y10757D01*
G01X36279Y10723D01*
G01X36259Y10688D01*
G01X36240Y10653D01*
G01X36222Y10617D01*
G01X36205Y10581D01*
G01X36189Y10546D01*
G01X36173Y10509D01*
G01X36158Y10471D01*
G01X36145Y10434D01*
G01X36132Y10396D01*
G01X36120Y10358D01*
G01X36109Y10319D01*
G01X36100Y10281D01*
G01X36091Y10242D01*
G01X36083Y10203D01*
G01X36076Y10164D01*
G01X36070Y10125D01*
G01X36065Y10084D01*
G01X36061Y10045D01*
G01X36058Y10005D01*
G01X36056Y9965D01*
G01X36055Y9925D01*
G01X36055Y9885D01*
G01X36056Y9846D01*
G01X36058Y9806D01*
G01X36061Y9766D01*
G01X36065Y9726D01*
G01X36070Y9686D01*
G01X36076Y9647D01*
G01X36083Y9608D01*
G01X36091Y9569D01*
G01X36100Y9530D01*
G01X36109Y9492D01*
G01X36120Y9453D01*
G01X36132Y9415D01*
G01X36145Y9377D01*
G01X36158Y9340D01*
G01X36173Y9302D01*
G01X36189Y9265D01*
G01X36205Y9229D01*
G01X36222Y9193D01*
G01X36240Y9158D01*
G01X36259Y9123D01*
G01X36279Y9088D01*
G01X36300Y9054D01*
G01X36322Y9021D01*
G01X36344Y8988D01*
G01X36367Y8955D01*
G01X36391Y8924D01*
G01X36391Y1699D01*
G37*

%LPC*%
G36*
G01X38722Y32365D02*
G01X38722Y30625D01*
G01X40093Y30625D01*
G01X40089Y30639D01*
G01X40079Y30678D01*
G01X40067Y30716D01*
G01X40054Y30754D01*
G01X40041Y30791D01*
G01X40026Y30829D01*
G01X40010Y30866D01*
G01X39994Y30901D01*
G01X39977Y30937D01*
G01X39958Y30973D01*
G01X39939Y31008D01*
G01X39919Y31043D01*
G01X39899Y31077D01*
G01X39877Y31110D01*
G01X39855Y31143D01*
G01X39831Y31175D01*
G01X39807Y31207D01*
G01X39782Y31239D01*
G01X39757Y31269D01*
G01X39730Y31299D01*
G01X39703Y31328D01*
G01X39675Y31357D01*
G01X39647Y31385D01*
G01X39618Y31412D01*
G01X39588Y31438D01*
G01X39557Y31464D01*
G01X39526Y31489D01*
G01X39517Y31495D01*
G01X39526Y31502D01*
G01X39557Y31527D01*
G01X39588Y31553D01*
G01X39618Y31579D01*
G01X39647Y31606D01*
G01X39675Y31634D01*
G01X39703Y31663D01*
G01X39730Y31692D01*
G01X39757Y31722D01*
G01X39782Y31752D01*
G01X39807Y31784D01*
G01X39831Y31815D01*
G01X39855Y31848D01*
G01X39877Y31881D01*
G01X39899Y31914D01*
G01X39919Y31948D01*
G01X39939Y31983D01*
G01X39958Y32018D01*
G01X39977Y32053D01*
G01X39994Y32089D01*
G01X40010Y32125D01*
G01X40026Y32162D01*
G01X40041Y32200D01*
G01X40054Y32237D01*
G01X40067Y32275D01*
G01X40079Y32313D01*
G01X40089Y32352D01*
G01X40093Y32365D01*
G01X38722Y32365D01*
G37*
G36*
G01X36109Y30639D02*
G01X36106Y30625D01*
G01X37477Y30625D01*
G01X37477Y32365D01*
G01X36106Y32365D01*
G01X36109Y32352D01*
G01X36120Y32313D01*
G01X36132Y32275D01*
G01X36145Y32237D01*
G01X36158Y32200D01*
G01X36173Y32162D01*
G01X36189Y32125D01*
G01X36205Y32089D01*
G01X36222Y32053D01*
G01X36240Y32018D01*
G01X36259Y31983D01*
G01X36279Y31948D01*
G01X36300Y31914D01*
G01X36322Y31881D01*
G01X36344Y31848D01*
G01X36367Y31815D01*
G01X36392Y31784D01*
G01X36417Y31752D01*
G01X36442Y31722D01*
G01X36469Y31692D01*
G01X36496Y31663D01*
G01X36524Y31634D01*
G01X36552Y31606D01*
G01X36581Y31579D01*
G01X36611Y31553D01*
G01X36642Y31527D01*
G01X36673Y31502D01*
G01X36682Y31495D01*
G01X36673Y31489D01*
G01X36642Y31464D01*
G01X36611Y31438D01*
G01X36581Y31412D01*
G01X36552Y31385D01*
G01X36524Y31357D01*
G01X36496Y31328D01*
G01X36469Y31299D01*
G01X36442Y31269D01*
G01X36417Y31239D01*
G01X36392Y31207D01*
G01X36367Y31175D01*
G01X36344Y31143D01*
G01X36322Y31110D01*
G01X36300Y31077D01*
G01X36279Y31043D01*
G01X36259Y31008D01*
G01X36240Y30973D01*
G01X36222Y30937D01*
G01X36205Y30901D01*
G01X36189Y30866D01*
G01X36173Y30829D01*
G01X36158Y30791D01*
G01X36145Y30754D01*
G01X36132Y30716D01*
G01X36120Y30678D01*
G01X36109Y30639D01*
G37*
G36*
G01X36109Y33179D02*
G01X36106Y33165D01*
G01X37477Y33165D01*
G01X37477Y33715D01*
G01X37515Y33712D01*
G01X37555Y33709D01*
G01X37595Y33707D01*
G01X37635Y33706D01*
G01X37655Y33705D01*
G01X38544Y33705D01*
G01X38564Y33706D01*
G01X38604Y33707D01*
G01X38644Y33709D01*
G01X38684Y33712D01*
G01X38722Y33715D01*
G01X38722Y33165D01*
G01X40093Y33165D01*
G01X40089Y33179D01*
G01X40079Y33218D01*
G01X40067Y33256D01*
G01X40054Y33294D01*
G01X40041Y33331D01*
G01X40026Y33369D01*
G01X40010Y33406D01*
G01X39994Y33441D01*
G01X39977Y33477D01*
G01X39958Y33513D01*
G01X39939Y33548D01*
G01X39919Y33583D01*
G01X39899Y33617D01*
G01X39877Y33650D01*
G01X39855Y33683D01*
G01X39831Y33715D01*
G01X39807Y33747D01*
G01X39782Y33779D01*
G01X39757Y33809D01*
G01X39730Y33839D01*
G01X39703Y33868D01*
G01X39675Y33897D01*
G01X39647Y33925D01*
G01X39618Y33952D01*
G01X39588Y33978D01*
G01X39557Y34004D01*
G01X39526Y34029D01*
G01X39517Y34035D01*
G01X39526Y34042D01*
G01X39557Y34067D01*
G01X39588Y34093D01*
G01X39618Y34119D01*
G01X39647Y34146D01*
G01X39675Y34174D01*
G01X39703Y34203D01*
G01X39730Y34232D01*
G01X39757Y34262D01*
G01X39782Y34292D01*
G01X39807Y34324D01*
G01X39831Y34355D01*
G01X39855Y34388D01*
G01X39877Y34421D01*
G01X39899Y34454D01*
G01X39919Y34488D01*
G01X39939Y34523D01*
G01X39958Y34558D01*
G01X39977Y34593D01*
G01X39994Y34629D01*
G01X40010Y34665D01*
G01X40026Y34702D01*
G01X40041Y34740D01*
G01X40054Y34777D01*
G01X40067Y34815D01*
G01X40079Y34853D01*
G01X40089Y34892D01*
G01X40099Y34930D01*
G01X40108Y34969D01*
G01X40116Y35008D01*
G01X40123Y35047D01*
G01X40129Y35086D01*
G01X40134Y35126D01*
G01X40138Y35166D01*
G01X40141Y35206D01*
G01X40143Y35246D01*
G01X40144Y35285D01*
G01X40144Y35325D01*
G01X40143Y35365D01*
G01X40141Y35405D01*
G01X40138Y35445D01*
G01X40134Y35484D01*
G01X40129Y35525D01*
G01X40123Y35564D01*
G01X40116Y35603D01*
G01X40108Y35642D01*
G01X40099Y35681D01*
G01X40089Y35719D01*
G01X40079Y35758D01*
G01X40067Y35796D01*
G01X40054Y35834D01*
G01X40041Y35871D01*
G01X40026Y35909D01*
G01X40010Y35946D01*
G01X39994Y35981D01*
G01X39977Y36017D01*
G01X39958Y36053D01*
G01X39939Y36088D01*
G01X39919Y36123D01*
G01X39899Y36157D01*
G01X39877Y36190D01*
G01X39855Y36223D01*
G01X39831Y36255D01*
G01X39807Y36287D01*
G01X39782Y36319D01*
G01X39757Y36349D01*
G01X39730Y36379D01*
G01X39703Y36408D01*
G01X39675Y36437D01*
G01X39647Y36465D01*
G01X39618Y36492D01*
G01X39588Y36518D01*
G01X39557Y36544D01*
G01X39526Y36569D01*
G01X39517Y36575D01*
G01X39526Y36582D01*
G01X39557Y36607D01*
G01X39588Y36633D01*
G01X39618Y36659D01*
G01X39647Y36686D01*
G01X39675Y36714D01*
G01X39703Y36743D01*
G01X39730Y36772D01*
G01X39757Y36802D01*
G01X39782Y36832D01*
G01X39807Y36864D01*
G01X39831Y36895D01*
G01X39855Y36928D01*
G01X39877Y36961D01*
G01X39899Y36994D01*
G01X39919Y37028D01*
G01X39939Y37063D01*
G01X39958Y37098D01*
G01X39977Y37133D01*
G01X39994Y37169D01*
G01X40010Y37205D01*
G01X40026Y37242D01*
G01X40041Y37280D01*
G01X40054Y37317D01*
G01X40067Y37355D01*
G01X40079Y37393D01*
G01X40089Y37432D01*
G01X40099Y37470D01*
G01X40108Y37509D01*
G01X40116Y37548D01*
G01X40123Y37587D01*
G01X40129Y37626D01*
G01X40134Y37666D01*
G01X40138Y37706D01*
G01X40141Y37746D01*
G01X40143Y37786D01*
G01X40144Y37825D01*
G01X40144Y37865D01*
G01X40143Y37905D01*
G01X40141Y37945D01*
G01X40138Y37985D01*
G01X40134Y38024D01*
G01X40129Y38065D01*
G01X40123Y38104D01*
G01X40116Y38143D01*
G01X40108Y38182D01*
G01X40099Y38221D01*
G01X40089Y38259D01*
G01X40079Y38298D01*
G01X40067Y38336D01*
G01X40054Y38374D01*
G01X40041Y38411D01*
G01X40026Y38449D01*
G01X40010Y38486D01*
G01X39994Y38521D01*
G01X39977Y38557D01*
G01X39958Y38593D01*
G01X39939Y38628D01*
G01X39919Y38663D01*
G01X39899Y38697D01*
G01X39877Y38730D01*
G01X39855Y38763D01*
G01X39831Y38795D01*
G01X39807Y38827D01*
G01X39782Y38859D01*
G01X39757Y38889D01*
G01X39730Y38919D01*
G01X39703Y38948D01*
G01X39675Y38977D01*
G01X39647Y39005D01*
G01X39618Y39032D01*
G01X39588Y39058D01*
G01X39557Y39084D01*
G01X39526Y39109D01*
G01X39494Y39133D01*
G01X39462Y39156D01*
G01X39428Y39179D01*
G01X39395Y39200D01*
G01X39361Y39221D01*
G01X39326Y39241D01*
G01X39292Y39260D01*
G01X39256Y39278D01*
G01X39220Y39295D01*
G01X39184Y39312D01*
G01X39147Y39328D01*
G01X39110Y39342D01*
G01X39073Y39356D01*
G01X39035Y39368D01*
G01X38996Y39380D01*
G01X38958Y39391D01*
G01X38919Y39401D01*
G01X38880Y39410D01*
G01X38842Y39417D01*
G01X38802Y39424D01*
G01X38762Y39430D01*
G01X38723Y39435D01*
G01X38684Y39439D01*
G01X38644Y39442D01*
G01X38604Y39444D01*
G01X38564Y39445D01*
G01X38544Y39446D01*
G01X37655Y39446D01*
G01X37635Y39445D01*
G01X37595Y39444D01*
G01X37555Y39442D01*
G01X37515Y39439D01*
G01X37476Y39435D01*
G01X37436Y39430D01*
G01X37397Y39424D01*
G01X37357Y39417D01*
G01X37319Y39410D01*
G01X37280Y39401D01*
G01X37241Y39391D01*
G01X37203Y39380D01*
G01X37164Y39368D01*
G01X37126Y39356D01*
G01X37089Y39342D01*
G01X37052Y39328D01*
G01X37015Y39312D01*
G01X36979Y39295D01*
G01X36943Y39278D01*
G01X36907Y39260D01*
G01X36872Y39241D01*
G01X36838Y39221D01*
G01X36804Y39200D01*
G01X36770Y39179D01*
G01X36737Y39156D01*
G01X36705Y39133D01*
G01X36673Y39109D01*
G01X36642Y39084D01*
G01X36611Y39058D01*
G01X36581Y39032D01*
G01X36552Y39005D01*
G01X36524Y38977D01*
G01X36496Y38948D01*
G01X36469Y38919D01*
G01X36442Y38889D01*
G01X36417Y38859D01*
G01X36392Y38827D01*
G01X36367Y38795D01*
G01X36344Y38763D01*
G01X36322Y38730D01*
G01X36300Y38697D01*
G01X36279Y38663D01*
G01X36259Y38628D01*
G01X36240Y38593D01*
G01X36222Y38557D01*
G01X36205Y38521D01*
G01X36189Y38486D01*
G01X36173Y38449D01*
G01X36158Y38411D01*
G01X36145Y38374D01*
G01X36132Y38336D01*
G01X36120Y38298D01*
G01X36109Y38259D01*
G01X36100Y38221D01*
G01X36091Y38182D01*
G01X36083Y38143D01*
G01X36076Y38104D01*
G01X36070Y38065D01*
G01X36065Y38024D01*
G01X36061Y37985D01*
G01X36058Y37945D01*
G01X36056Y37905D01*
G01X36055Y37865D01*
G01X36055Y37825D01*
G01X36056Y37786D01*
G01X36058Y37746D01*
G01X36061Y37706D01*
G01X36065Y37666D01*
G01X36070Y37626D01*
G01X36076Y37587D01*
G01X36083Y37548D01*
G01X36091Y37509D01*
G01X36100Y37470D01*
G01X36109Y37432D01*
G01X36120Y37393D01*
G01X36132Y37355D01*
G01X36145Y37317D01*
G01X36158Y37280D01*
G01X36173Y37242D01*
G01X36189Y37205D01*
G01X36205Y37169D01*
G01X36222Y37133D01*
G01X36240Y37098D01*
G01X36259Y37063D01*
G01X36279Y37028D01*
G01X36300Y36994D01*
G01X36322Y36961D01*
G01X36344Y36928D01*
G01X36367Y36895D01*
G01X36392Y36864D01*
G01X36417Y36832D01*
G01X36442Y36802D01*
G01X36469Y36772D01*
G01X36496Y36743D01*
G01X36524Y36714D01*
G01X36552Y36686D01*
G01X36581Y36659D01*
G01X36611Y36633D01*
G01X36642Y36607D01*
G01X36673Y36582D01*
G01X36682Y36575D01*
G01X36673Y36569D01*
G01X36642Y36544D01*
G01X36611Y36518D01*
G01X36581Y36492D01*
G01X36552Y36465D01*
G01X36524Y36437D01*
G01X36496Y36408D01*
G01X36469Y36379D01*
G01X36442Y36349D01*
G01X36417Y36319D01*
G01X36392Y36287D01*
G01X36367Y36255D01*
G01X36344Y36223D01*
G01X36322Y36190D01*
G01X36300Y36157D01*
G01X36279Y36123D01*
G01X36259Y36088D01*
G01X36240Y36053D01*
G01X36222Y36017D01*
G01X36205Y35981D01*
G01X36189Y35946D01*
G01X36173Y35909D01*
G01X36158Y35871D01*
G01X36145Y35834D01*
G01X36132Y35796D01*
G01X36120Y35758D01*
G01X36109Y35719D01*
G01X36100Y35681D01*
G01X36091Y35642D01*
G01X36083Y35603D01*
G01X36076Y35564D01*
G01X36070Y35525D01*
G01X36065Y35484D01*
G01X36061Y35445D01*
G01X36058Y35405D01*
G01X36056Y35365D01*
G01X36055Y35325D01*
G01X36055Y35285D01*
G01X36056Y35246D01*
G01X36058Y35206D01*
G01X36061Y35166D01*
G01X36065Y35126D01*
G01X36070Y35086D01*
G01X36076Y35047D01*
G01X36083Y35008D01*
G01X36091Y34969D01*
G01X36100Y34930D01*
G01X36109Y34892D01*
G01X36120Y34853D01*
G01X36132Y34815D01*
G01X36145Y34777D01*
G01X36158Y34740D01*
G01X36173Y34702D01*
G01X36189Y34665D01*
G01X36205Y34629D01*
G01X36222Y34593D01*
G01X36240Y34558D01*
G01X36259Y34523D01*
G01X36279Y34488D01*
G01X36300Y34454D01*
G01X36322Y34421D01*
G01X36344Y34388D01*
G01X36367Y34355D01*
G01X36392Y34324D01*
G01X36417Y34292D01*
G01X36442Y34262D01*
G01X36469Y34232D01*
G01X36496Y34203D01*
G01X36524Y34174D01*
G01X36552Y34146D01*
G01X36581Y34119D01*
G01X36611Y34093D01*
G01X36642Y34067D01*
G01X36673Y34042D01*
G01X36682Y34035D01*
G01X36673Y34029D01*
G01X36642Y34004D01*
G01X36611Y33978D01*
G01X36581Y33952D01*
G01X36552Y33925D01*
G01X36524Y33897D01*
G01X36496Y33868D01*
G01X36469Y33839D01*
G01X36442Y33809D01*
G01X36417Y33779D01*
G01X36392Y33747D01*
G01X36367Y33715D01*
G01X36344Y33683D01*
G01X36322Y33650D01*
G01X36300Y33617D01*
G01X36279Y33583D01*
G01X36259Y33548D01*
G01X36240Y33513D01*
G01X36222Y33477D01*
G01X36205Y33441D01*
G01X36189Y33406D01*
G01X36173Y33369D01*
G01X36158Y33331D01*
G01X36145Y33294D01*
G01X36132Y33256D01*
G01X36120Y33218D01*
G01X36109Y33179D01*
G37*

%LPD*%
G36*
G01X11067Y13391D02*
G01X10267Y13391D01*
G01X10267Y14360D01*
G01X9718Y14360D01*
G01X9721Y14396D01*
G01X9724Y14435D01*
G01X9726Y14476D01*
G01X9727Y14516D01*
G01X9727Y14535D01*
G01X9727Y15435D01*
G01X9727Y15455D01*
G01X9726Y15495D01*
G01X9724Y15535D01*
G01X9721Y15575D01*
G01X9718Y15610D01*
G01X10267Y15610D01*
G01X10267Y16984D01*
G01X10254Y16981D01*
G01X10215Y16970D01*
G01X10177Y16958D01*
G01X10139Y16946D01*
G01X10102Y16932D01*
G01X10064Y16917D01*
G01X10028Y16902D01*
G01X9991Y16885D01*
G01X9955Y16868D01*
G01X9920Y16850D01*
G01X9885Y16831D01*
G01X9850Y16811D01*
G01X9816Y16790D01*
G01X9783Y16769D01*
G01X9750Y16746D01*
G01X9717Y16723D01*
G01X9685Y16699D01*
G01X9654Y16674D01*
G01X9624Y16648D01*
G01X9594Y16622D01*
G01X9565Y16595D01*
G01X9536Y16567D01*
G01X9508Y16538D01*
G01X9481Y16509D01*
G01X9455Y16479D01*
G01X9429Y16448D01*
G01X9404Y16417D01*
G01X9397Y16408D01*
G01X9391Y16417D01*
G01X9366Y16448D01*
G01X9340Y16479D01*
G01X9327Y16493D01*
G01X9327Y19657D01*
G01X9360Y19668D01*
G01X9397Y19682D01*
G01X9435Y19696D01*
G01X9471Y19712D01*
G01X9508Y19728D01*
G01X9544Y19745D01*
G01X9579Y19764D01*
G01X9614Y19783D01*
G01X9649Y19802D01*
G01X9683Y19823D01*
G01X9716Y19845D01*
G01X9749Y19867D01*
G01X9782Y19891D01*
G01X9813Y19915D01*
G01X9844Y19940D01*
G01X9875Y19965D01*
G01X9905Y19992D01*
G01X9934Y20019D01*
G01X9963Y20047D01*
G01X9991Y20075D01*
G01X10018Y20105D01*
G01X10044Y20134D01*
G01X10070Y20165D01*
G01X10095Y20196D01*
G01X10119Y20228D01*
G01X10142Y20261D01*
G01X10165Y20294D01*
G01X10186Y20327D01*
G01X10207Y20361D01*
G01X10227Y20395D01*
G01X10246Y20430D01*
G01X10264Y20466D01*
G01X10281Y20502D01*
G01X10298Y20538D01*
G01X10313Y20575D01*
G01X10328Y20612D01*
G01X10342Y20650D01*
G01X10354Y20687D01*
G01X10366Y20725D01*
G01X10377Y20764D01*
G01X10387Y20803D01*
G01X10395Y20841D01*
G01X10403Y20880D01*
G01X10410Y20920D01*
G01X10416Y20959D01*
G01X10421Y20999D01*
G01X10425Y21039D01*
G01X10428Y21078D01*
G01X10430Y21118D01*
G01X10431Y21158D01*
G01X10431Y21198D01*
G01X10430Y21238D01*
G01X10428Y21277D01*
G01X10425Y21317D01*
G01X10421Y21357D01*
G01X10416Y21397D01*
G01X10410Y21436D01*
G01X10403Y21476D01*
G01X10395Y21515D01*
G01X10387Y21553D01*
G01X10377Y21592D01*
G01X10366Y21630D01*
G01X10354Y21669D01*
G01X10342Y21706D01*
G01X10328Y21744D01*
G01X10313Y21781D01*
G01X10298Y21818D01*
G01X10281Y21854D01*
G01X10264Y21890D01*
G01X10246Y21926D01*
G01X10227Y21961D01*
G01X10207Y21995D01*
G01X10186Y22029D01*
G01X10165Y22062D01*
G01X10142Y22095D01*
G01X10119Y22128D01*
G01X10095Y22160D01*
G01X10070Y22191D01*
G01X10044Y22222D01*
G01X10018Y22251D01*
G01X9991Y22280D01*
G01X9963Y22309D01*
G01X9934Y22337D01*
G01X9905Y22364D01*
G01X9875Y22391D01*
G01X9844Y22416D01*
G01X9813Y22441D01*
G01X9804Y22448D01*
G01X9813Y22455D01*
G01X9844Y22480D01*
G01X9875Y22505D01*
G01X9905Y22532D01*
G01X9934Y22559D01*
G01X9963Y22587D01*
G01X9991Y22615D01*
G01X10018Y22645D01*
G01X10044Y22674D01*
G01X10070Y22705D01*
G01X10095Y22736D01*
G01X10119Y22768D01*
G01X10142Y22801D01*
G01X10165Y22834D01*
G01X10186Y22867D01*
G01X10207Y22901D01*
G01X10227Y22935D01*
G01X10246Y22970D01*
G01X10264Y23006D01*
G01X10281Y23042D01*
G01X10298Y23078D01*
G01X10313Y23115D01*
G01X10328Y23152D01*
G01X10342Y23190D01*
G01X10354Y23227D01*
G01X10366Y23265D01*
G01X10377Y23304D01*
G01X10387Y23343D01*
G01X10395Y23381D01*
G01X10403Y23420D01*
G01X10410Y23460D01*
G01X10416Y23499D01*
G01X10421Y23539D01*
G01X10425Y23579D01*
G01X10428Y23618D01*
G01X10430Y23658D01*
G01X10431Y23698D01*
G01X10431Y23738D01*
G01X10430Y23778D01*
G01X10428Y23817D01*
G01X10425Y23857D01*
G01X10421Y23897D01*
G01X10416Y23937D01*
G01X10410Y23976D01*
G01X10403Y24016D01*
G01X10395Y24055D01*
G01X10387Y24093D01*
G01X10377Y24132D01*
G01X10366Y24170D01*
G01X10354Y24209D01*
G01X10342Y24246D01*
G01X10328Y24284D01*
G01X10313Y24321D01*
G01X10298Y24358D01*
G01X10281Y24394D01*
G01X10264Y24430D01*
G01X10246Y24466D01*
G01X10227Y24501D01*
G01X10207Y24535D01*
G01X10186Y24569D01*
G01X10165Y24602D01*
G01X10142Y24635D01*
G01X10119Y24668D01*
G01X10095Y24700D01*
G01X10070Y24731D01*
G01X10044Y24762D01*
G01X10018Y24791D01*
G01X9991Y24820D01*
G01X9963Y24849D01*
G01X9934Y24877D01*
G01X9905Y24904D01*
G01X9875Y24931D01*
G01X9844Y24956D01*
G01X9813Y24981D01*
G01X9782Y25005D01*
G01X9749Y25028D01*
G01X9716Y25051D01*
G01X9683Y25073D01*
G01X9649Y25093D01*
G01X9614Y25113D01*
G01X9581Y25131D01*
G01X9581Y26358D01*
G01X9597Y26360D01*
G01X9636Y26367D01*
G01X9676Y26375D01*
G01X9715Y26384D01*
G01X9753Y26394D01*
G01X9792Y26405D01*
G01X9830Y26417D01*
G01X9868Y26429D01*
G01X9905Y26443D01*
G01X9943Y26458D01*
G01X9979Y26473D01*
G01X10016Y26489D01*
G01X10052Y26507D01*
G01X10087Y26525D01*
G01X10122Y26544D01*
G01X10157Y26564D01*
G01X10191Y26585D01*
G01X10224Y26606D01*
G01X10257Y26629D01*
G01X10290Y26652D01*
G01X10321Y26676D01*
G01X10352Y26701D01*
G01X10383Y26727D01*
G01X10413Y26753D01*
G01X10442Y26780D01*
G01X10471Y26808D01*
G01X10499Y26837D01*
G01X10526Y26866D01*
G01X10552Y26896D01*
G01X10578Y26926D01*
G01X10603Y26957D01*
G01X10627Y26989D01*
G01X10650Y27022D01*
G01X10673Y27055D01*
G01X10694Y27088D01*
G01X10715Y27122D01*
G01X10735Y27157D01*
G01X10754Y27192D01*
G01X10772Y27227D01*
G01X10789Y27263D01*
G01X10806Y27300D01*
G01X10821Y27336D01*
G01X10836Y27374D01*
G01X10850Y27411D01*
G01X10862Y27449D01*
G01X10874Y27487D01*
G01X10885Y27526D01*
G01X10895Y27564D01*
G01X10903Y27603D01*
G01X10911Y27642D01*
G01X10918Y27681D01*
G01X10924Y27721D01*
G01X10929Y27760D01*
G01X10933Y27800D01*
G01X10936Y27840D01*
G01X10938Y27880D01*
G01X10939Y27919D01*
G01X10939Y27959D01*
G01X10938Y27999D01*
G01X10936Y28039D01*
G01X10933Y28079D01*
G01X10929Y28118D01*
G01X10924Y28158D01*
G01X10918Y28198D01*
G01X10911Y28237D01*
G01X10903Y28276D01*
G01X10895Y28315D01*
G01X10885Y28353D01*
G01X10874Y28392D01*
G01X10862Y28430D01*
G01X10850Y28468D01*
G01X10836Y28505D01*
G01X10821Y28542D01*
G01X10806Y28579D01*
G01X10789Y28616D01*
G01X10772Y28652D01*
G01X10754Y28687D01*
G01X10735Y28722D01*
G01X10715Y28757D01*
G01X10694Y28791D01*
G01X10673Y28824D01*
G01X10650Y28857D01*
G01X10627Y28890D01*
G01X10603Y28921D01*
G01X10578Y28953D01*
G01X10552Y28983D01*
G01X10526Y29013D01*
G01X10499Y29042D01*
G01X10471Y29071D01*
G01X10442Y29099D01*
G01X10413Y29126D01*
G01X10383Y29152D01*
G01X10352Y29178D01*
G01X10321Y29203D01*
G01X10290Y29227D01*
G01X10257Y29250D01*
G01X10224Y29272D01*
G01X10191Y29294D01*
G01X10157Y29315D01*
G01X10122Y29335D01*
G01X10087Y29354D01*
G01X10052Y29372D01*
G01X10016Y29389D01*
G01X9979Y29406D01*
G01X9943Y29421D01*
G01X9905Y29436D01*
G01X9868Y29450D01*
G01X9830Y29462D01*
G01X9792Y29474D01*
G01X9753Y29485D01*
G01X9715Y29495D01*
G01X9676Y29503D01*
G01X9636Y29511D01*
G01X9597Y29518D01*
G01X9558Y29524D01*
G01X9518Y29529D01*
G01X9479Y29533D01*
G01X9439Y29536D01*
G01X9399Y29538D01*
G01X9359Y29539D01*
G01X9339Y29539D01*
G01X8439Y29539D01*
G01X8420Y29539D01*
G01X8380Y29538D01*
G01X8339Y29536D01*
G01X8300Y29533D01*
G01X8260Y29529D01*
G01X8221Y29524D01*
G01X8182Y29518D01*
G01X8142Y29511D01*
G01X8103Y29503D01*
G01X8064Y29495D01*
G01X8026Y29485D01*
G01X7987Y29474D01*
G01X7949Y29462D01*
G01X7911Y29450D01*
G01X7873Y29436D01*
G01X7836Y29421D01*
G01X7800Y29406D01*
G01X7763Y29389D01*
G01X7727Y29372D01*
G01X7692Y29354D01*
G01X7657Y29335D01*
G01X7622Y29315D01*
G01X7588Y29294D01*
G01X7555Y29272D01*
G01X7522Y29250D01*
G01X7489Y29227D01*
G01X7458Y29203D01*
G01X7427Y29178D01*
G01X7396Y29152D01*
G01X7366Y29126D01*
G01X7337Y29099D01*
G01X7308Y29071D01*
G01X7280Y29042D01*
G01X7253Y29013D01*
G01X7227Y28983D01*
G01X7201Y28953D01*
G01X7176Y28921D01*
G01X7152Y28890D01*
G01X7129Y28857D01*
G01X7106Y28824D01*
G01X7085Y28791D01*
G01X7064Y28757D01*
G01X7044Y28722D01*
G01X7025Y28687D01*
G01X7007Y28652D01*
G01X6990Y28616D01*
G01X6973Y28579D01*
G01X6958Y28542D01*
G01X6943Y28505D01*
G01X6929Y28468D01*
G01X6917Y28430D01*
G01X6905Y28392D01*
G01X6894Y28353D01*
G01X6884Y28315D01*
G01X6875Y28276D01*
G01X6868Y28237D01*
G01X6861Y28198D01*
G01X6855Y28158D01*
G01X6850Y28118D01*
G01X6846Y28079D01*
G01X6843Y28039D01*
G01X6841Y27999D01*
G01X6840Y27959D01*
G01X6840Y27919D01*
G01X6841Y27880D01*
G01X6843Y27840D01*
G01X6846Y27800D01*
G01X6850Y27760D01*
G01X6855Y27721D01*
G01X6861Y27681D01*
G01X6868Y27642D01*
G01X6875Y27603D01*
G01X6884Y27564D01*
G01X6894Y27526D01*
G01X6905Y27487D01*
G01X6917Y27449D01*
G01X6929Y27411D01*
G01X6943Y27374D01*
G01X6958Y27336D01*
G01X6973Y27300D01*
G01X6990Y27263D01*
G01X7007Y27227D01*
G01X7025Y27192D01*
G01X7044Y27157D01*
G01X7064Y27122D01*
G01X7085Y27088D01*
G01X7106Y27055D01*
G01X7129Y27022D01*
G01X7152Y26989D01*
G01X7176Y26957D01*
G01X7181Y26951D01*
G01X7181Y25131D01*
G01X7149Y25113D01*
G01X7114Y25093D01*
G01X7080Y25073D01*
G01X7047Y25051D01*
G01X7014Y25028D01*
G01X6981Y25005D01*
G01X6950Y24981D01*
G01X6919Y24956D01*
G01X6888Y24931D01*
G01X6858Y24904D01*
G01X6829Y24877D01*
G01X6800Y24849D01*
G01X6772Y24820D01*
G01X6745Y24791D01*
G01X6719Y24762D01*
G01X6693Y24731D01*
G01X6668Y24700D01*
G01X6644Y24668D01*
G01X6621Y24635D01*
G01X6598Y24602D01*
G01X6577Y24569D01*
G01X6556Y24535D01*
G01X6536Y24501D01*
G01X6517Y24466D01*
G01X6499Y24430D01*
G01X6482Y24394D01*
G01X6465Y24358D01*
G01X6450Y24321D01*
G01X6435Y24284D01*
G01X6421Y24246D01*
G01X6409Y24209D01*
G01X6397Y24170D01*
G01X6386Y24132D01*
G01X6376Y24093D01*
G01X6367Y24055D01*
G01X6360Y24016D01*
G01X6353Y23976D01*
G01X6347Y23937D01*
G01X6342Y23897D01*
G01X6338Y23857D01*
G01X6335Y23817D01*
G01X6333Y23778D01*
G01X6332Y23738D01*
G01X6332Y23698D01*
G01X6333Y23658D01*
G01X6335Y23618D01*
G01X6338Y23579D01*
G01X6342Y23539D01*
G01X6347Y23499D01*
G01X6353Y23460D01*
G01X6360Y23420D01*
G01X6367Y23381D01*
G01X6376Y23343D01*
G01X6386Y23304D01*
G01X6397Y23265D01*
G01X6409Y23227D01*
G01X6421Y23190D01*
G01X6435Y23152D01*
G01X6450Y23115D01*
G01X6465Y23078D01*
G01X6482Y23042D01*
G01X6499Y23006D01*
G01X6517Y22970D01*
G01X6536Y22935D01*
G01X6556Y22901D01*
G01X6577Y22867D01*
G01X6598Y22834D01*
G01X6621Y22801D01*
G01X6644Y22768D01*
G01X6668Y22736D01*
G01X6693Y22705D01*
G01X6719Y22674D01*
G01X6745Y22645D01*
G01X6772Y22615D01*
G01X6800Y22587D01*
G01X6829Y22559D01*
G01X6858Y22532D01*
G01X6888Y22505D01*
G01X6919Y22480D01*
G01X6950Y22455D01*
G01X6959Y22448D01*
G01X6950Y22441D01*
G01X6919Y22416D01*
G01X6888Y22391D01*
G01X6858Y22364D01*
G01X6829Y22337D01*
G01X6800Y22309D01*
G01X6772Y22280D01*
G01X6745Y22251D01*
G01X6719Y22222D01*
G01X6693Y22191D01*
G01X6668Y22160D01*
G01X6644Y22128D01*
G01X6621Y22095D01*
G01X6598Y22062D01*
G01X6577Y22029D01*
G01X6556Y21995D01*
G01X6536Y21961D01*
G01X6517Y21926D01*
G01X6499Y21890D01*
G01X6482Y21854D01*
G01X6465Y21818D01*
G01X6450Y21781D01*
G01X6435Y21744D01*
G01X6421Y21706D01*
G01X6409Y21669D01*
G01X6397Y21630D01*
G01X6386Y21592D01*
G01X6376Y21553D01*
G01X6367Y21515D01*
G01X6360Y21476D01*
G01X6353Y21436D01*
G01X6347Y21397D01*
G01X6342Y21357D01*
G01X6338Y21317D01*
G01X6335Y21277D01*
G01X6333Y21238D01*
G01X6332Y21198D01*
G01X6332Y21158D01*
G01X6333Y21118D01*
G01X6335Y21078D01*
G01X6338Y21039D01*
G01X6342Y20999D01*
G01X6347Y20959D01*
G01X6353Y20920D01*
G01X6360Y20880D01*
G01X6367Y20841D01*
G01X6376Y20803D01*
G01X6386Y20764D01*
G01X6397Y20725D01*
G01X6409Y20687D01*
G01X6421Y20650D01*
G01X6435Y20612D01*
G01X6450Y20575D01*
G01X6465Y20538D01*
G01X6482Y20502D01*
G01X6499Y20466D01*
G01X6517Y20430D01*
G01X6536Y20395D01*
G01X6556Y20361D01*
G01X6577Y20327D01*
G01X6598Y20294D01*
G01X6621Y20261D01*
G01X6644Y20228D01*
G01X6668Y20196D01*
G01X6693Y20165D01*
G01X6719Y20134D01*
G01X6745Y20105D01*
G01X6772Y20075D01*
G01X6800Y20047D01*
G01X6829Y20019D01*
G01X6858Y19992D01*
G01X6888Y19965D01*
G01X6919Y19940D01*
G01X6927Y19932D01*
G01X6927Y16493D01*
G01X6915Y16479D01*
G01X6889Y16448D01*
G01X6864Y16417D01*
G01X6857Y16408D01*
G01X6851Y16417D01*
G01X6826Y16448D01*
G01X6800Y16479D01*
G01X6774Y16509D01*
G01X6747Y16538D01*
G01X6719Y16567D01*
G01X6690Y16595D01*
G01X6661Y16622D01*
G01X6631Y16648D01*
G01X6601Y16674D01*
G01X6569Y16699D01*
G01X6538Y16723D01*
G01X6505Y16746D01*
G01X6472Y16769D01*
G01X6439Y16790D01*
G01X6405Y16811D01*
G01X6370Y16831D01*
G01X6335Y16850D01*
G01X6300Y16868D01*
G01X6264Y16885D01*
G01X6227Y16902D01*
G01X6190Y16917D01*
G01X6153Y16932D01*
G01X6116Y16946D01*
G01X6078Y16958D01*
G01X6040Y16970D01*
G01X6001Y16981D01*
G01X5963Y16991D01*
G01X5924Y16999D01*
G01X5885Y17007D01*
G01X5846Y17014D01*
G01X5806Y17020D01*
G01X5766Y17025D01*
G01X5727Y17029D01*
G01X5687Y17032D01*
G01X5647Y17034D01*
G01X5607Y17035D01*
G01X5567Y17035D01*
G01X5528Y17034D01*
G01X5488Y17032D01*
G01X5448Y17029D01*
G01X5408Y17025D01*
G01X5369Y17020D01*
G01X5329Y17014D01*
G01X5290Y17007D01*
G01X5251Y16999D01*
G01X5212Y16991D01*
G01X5174Y16981D01*
G01X5135Y16970D01*
G01X5097Y16958D01*
G01X5059Y16946D01*
G01X5022Y16932D01*
G01X4984Y16917D01*
G01X4948Y16902D01*
G01X4911Y16885D01*
G01X4875Y16868D01*
G01X4840Y16850D01*
G01X4805Y16831D01*
G01X4770Y16811D01*
G01X4736Y16790D01*
G01X4703Y16769D01*
G01X4670Y16746D01*
G01X4637Y16723D01*
G01X4605Y16699D01*
G01X4574Y16674D01*
G01X4544Y16648D01*
G01X4514Y16622D01*
G01X4485Y16595D01*
G01X4456Y16567D01*
G01X4428Y16538D01*
G01X4401Y16509D01*
G01X4375Y16479D01*
G01X4349Y16448D01*
G01X4324Y16417D01*
G01X4317Y16408D01*
G01X4311Y16417D01*
G01X4286Y16448D01*
G01X4260Y16479D01*
G01X4234Y16509D01*
G01X4207Y16538D01*
G01X4179Y16567D01*
G01X4150Y16595D01*
G01X4121Y16622D01*
G01X4091Y16648D01*
G01X4061Y16674D01*
G01X4029Y16699D01*
G01X3998Y16723D01*
G01X3965Y16746D01*
G01X3932Y16769D01*
G01X3899Y16790D01*
G01X3865Y16811D01*
G01X3830Y16831D01*
G01X3795Y16850D01*
G01X3760Y16868D01*
G01X3724Y16885D01*
G01X3687Y16902D01*
G01X3650Y16917D01*
G01X3613Y16932D01*
G01X3576Y16946D01*
G01X3538Y16958D01*
G01X3500Y16970D01*
G01X3461Y16981D01*
G01X3423Y16991D01*
G01X3384Y16999D01*
G01X3345Y17007D01*
G01X3306Y17014D01*
G01X3266Y17020D01*
G01X3226Y17025D01*
G01X3187Y17029D01*
G01X3147Y17032D01*
G01X3107Y17034D01*
G01X3067Y17035D01*
G01X3027Y17035D01*
G01X2988Y17034D01*
G01X2948Y17032D01*
G01X2908Y17029D01*
G01X2868Y17025D01*
G01X2829Y17020D01*
G01X2789Y17014D01*
G01X2750Y17007D01*
G01X2711Y16999D01*
G01X2672Y16991D01*
G01X2634Y16981D01*
G01X2595Y16970D01*
G01X2557Y16958D01*
G01X2519Y16946D01*
G01X2482Y16932D01*
G01X2444Y16917D01*
G01X2408Y16902D01*
G01X2371Y16885D01*
G01X2335Y16868D01*
G01X2300Y16850D01*
G01X2265Y16831D01*
G01X2230Y16811D01*
G01X2196Y16790D01*
G01X2163Y16769D01*
G01X2130Y16746D01*
G01X2097Y16723D01*
G01X2065Y16699D01*
G01X2034Y16674D01*
G01X2004Y16648D01*
G01X1974Y16622D01*
G01X1945Y16595D01*
G01X1916Y16567D01*
G01X1888Y16538D01*
G01X1861Y16509D01*
G01X1835Y16479D01*
G01X1809Y16448D01*
G01X1784Y16417D01*
G01X1760Y16386D01*
G01X1737Y16353D01*
G01X1714Y16320D01*
G01X1693Y16287D01*
G01X1672Y16252D01*
G01X1652Y16218D01*
G01X1634Y16185D01*
G01X253Y16185D01*
G01X224Y16185D01*
G01X194Y16184D01*
G01X164Y16182D01*
G01X134Y16179D01*
G01X104Y16176D01*
G01X75Y16172D01*
G01X45Y16167D01*
G01X16Y16162D01*
G01X0Y16158D01*
G01X0Y48513D01*
G01X24312Y48513D01*
G01X24306Y48499D01*
G01X24294Y48472D01*
G01X24282Y48444D01*
G01X24272Y48416D01*
G01X24262Y48388D01*
G01X24253Y48359D01*
G01X24244Y48330D01*
G01X24237Y48302D01*
G01X24230Y48272D01*
G01X24223Y48243D01*
G01X24218Y48214D01*
G01X24213Y48184D01*
G01X24209Y48155D01*
G01X24205Y48125D01*
G01X24203Y48095D01*
G01X24201Y48065D01*
G01X24200Y48035D01*
G01X24199Y48005D01*
G01X24199Y46227D01*
G01X24200Y46204D01*
G01X24200Y46181D01*
G01X24201Y46158D01*
G01X24203Y46136D01*
G01X24205Y46113D01*
G01X24207Y46090D01*
G01X24210Y46067D01*
G01X24213Y46044D01*
G01X24217Y46022D01*
G01X24221Y45999D01*
G01X24226Y45976D01*
G01X24231Y45954D01*
G01X24236Y45932D01*
G01X24242Y45909D01*
G01X24249Y45887D01*
G01X24255Y45865D01*
G01X24262Y45844D01*
G01X24270Y45822D01*
G01X24278Y45800D01*
G01X24286Y45779D01*
G01X24295Y45758D01*
G01X24304Y45737D01*
G01X24314Y45716D01*
G01X24324Y45695D01*
G01X24334Y45674D01*
G01X24345Y45654D01*
G01X24356Y45634D01*
G01X24368Y45614D01*
G01X24380Y45595D01*
G01X24392Y45575D01*
G01X24405Y45556D01*
G01X24418Y45537D01*
G01X24431Y45518D01*
G01X24445Y45500D01*
G01X24459Y45482D01*
G01X24474Y45464D01*
G01X24488Y45446D01*
G01X24504Y45429D01*
G01X24519Y45412D01*
G01X24535Y45395D01*
G01X24551Y45379D01*
G01X24599Y45331D01*
G01X24615Y45315D01*
G01X24632Y45299D01*
G01X24649Y45284D01*
G01X24666Y45268D01*
G01X24684Y45254D01*
G01X24702Y45239D01*
G01X24720Y45225D01*
G01X24738Y45211D01*
G01X24757Y45198D01*
G01X24776Y45185D01*
G01X24795Y45172D01*
G01X24815Y45160D01*
G01X24834Y45148D01*
G01X24854Y45136D01*
G01X24874Y45125D01*
G01X24894Y45114D01*
G01X24915Y45104D01*
G01X24936Y45094D01*
G01X24957Y45084D01*
G01X24978Y45075D01*
G01X24999Y45066D01*
G01X25020Y45058D01*
G01X25042Y45050D01*
G01X25064Y45042D01*
G01X25085Y45035D01*
G01X25107Y45029D01*
G01X25129Y45022D01*
G01X25152Y45016D01*
G01X25174Y45011D01*
G01X25196Y45006D01*
G01X25219Y45001D01*
G01X25242Y44997D01*
G01X25264Y44993D01*
G01X25287Y44990D01*
G01X25310Y44987D01*
G01X25333Y44985D01*
G01X25356Y44983D01*
G01X25378Y44981D01*
G01X25401Y44980D01*
G01X25424Y44980D01*
G01X25447Y44979D01*
G01X27677Y44979D01*
G01X27666Y44979D01*
G01X27646Y44977D01*
G01X27626Y44975D01*
G01X27606Y44972D01*
G01X27586Y44969D01*
G01X27567Y44965D01*
G01X27547Y44961D01*
G01X27528Y44956D01*
G01X27509Y44951D01*
G01X27490Y44945D01*
G01X27471Y44939D01*
G01X27452Y44933D01*
G01X27433Y44926D01*
G01X27415Y44918D01*
G01X27396Y44910D01*
G01X27378Y44902D01*
G01X27360Y44893D01*
G01X27343Y44884D01*
G01X27325Y44874D01*
G01X27308Y44864D01*
G01X27291Y44853D01*
G01X27275Y44842D01*
G01X27258Y44831D01*
G01X27242Y44819D01*
G01X27227Y44806D01*
G01X27211Y44794D01*
G01X27196Y44781D01*
G01X27181Y44767D01*
G01X27167Y44754D01*
G01X27153Y44740D01*
G01X27139Y44725D01*
G01X27126Y44710D01*
G01X27113Y44695D01*
G01X27100Y44680D01*
G01X27088Y44664D01*
G01X27076Y44648D01*
G01X27064Y44632D01*
G01X27053Y44615D01*
G01X27043Y44598D01*
G01X27033Y44581D01*
G01X27023Y44564D01*
G01X27014Y44546D01*
G01X27005Y44528D01*
G01X26996Y44510D01*
G01X26988Y44492D01*
G01X26981Y44473D01*
G01X26974Y44455D01*
G01X26967Y44436D01*
G01X26961Y44417D01*
G01X26955Y44398D01*
G01X26950Y44378D01*
G01X26945Y44359D01*
G01X26941Y44339D01*
G01X26938Y44320D01*
G01X26934Y44300D01*
G01X26932Y44280D01*
G01X26929Y44261D01*
G01X26928Y44241D01*
G01X26926Y44221D01*
G01X26926Y44201D01*
G01X26925Y44181D01*
G01X26925Y42981D01*
G01X26926Y42961D01*
G01X26926Y42941D01*
G01X26928Y42921D01*
G01X26929Y42901D01*
G01X26932Y42881D01*
G01X26934Y42862D01*
G01X26938Y42842D01*
G01X26941Y42822D01*
G01X26945Y42803D01*
G01X26950Y42784D01*
G01X26955Y42764D01*
G01X26961Y42745D01*
G01X26967Y42726D01*
G01X26974Y42707D01*
G01X26981Y42689D01*
G01X26988Y42670D01*
G01X26996Y42652D01*
G01X27005Y42634D01*
G01X27014Y42616D01*
G01X27023Y42598D01*
G01X27033Y42581D01*
G01X27043Y42564D01*
G01X27053Y42547D01*
G01X27064Y42530D01*
G01X27076Y42514D01*
G01X27088Y42498D01*
G01X27100Y42482D01*
G01X27113Y42467D01*
G01X27126Y42452D01*
G01X27139Y42437D01*
G01X27153Y42422D01*
G01X27167Y42408D01*
G01X27181Y42395D01*
G01X27196Y42381D01*
G01X27211Y42368D01*
G01X27227Y42355D01*
G01X27242Y42343D01*
G01X27258Y42331D01*
G01X27275Y42320D01*
G01X27291Y42309D01*
G01X27308Y42298D01*
G01X27325Y42288D01*
G01X27343Y42278D01*
G01X27360Y42269D01*
G01X27378Y42260D01*
G01X27396Y42252D01*
G01X27415Y42244D01*
G01X27433Y42236D01*
G01X27452Y42229D01*
G01X27471Y42223D01*
G01X27490Y42216D01*
G01X27509Y42211D01*
G01X27528Y42206D01*
G01X27547Y42201D01*
G01X27567Y42197D01*
G01X27586Y42193D01*
G01X27606Y42190D01*
G01X27626Y42187D01*
G01X27646Y42185D01*
G01X27666Y42183D01*
G01X27686Y42182D01*
G01X27705Y42181D01*
G01X27725Y42181D01*
G01X28025Y42181D01*
G01X28025Y34041D01*
G01X25410Y31425D01*
G01X24362Y31425D01*
G01X24348Y31438D01*
G01X24317Y31464D01*
G01X24286Y31489D01*
G01X24277Y31495D01*
G01X24286Y31502D01*
G01X24317Y31527D01*
G01X24348Y31553D01*
G01X24378Y31579D01*
G01X24407Y31606D01*
G01X24435Y31634D01*
G01X24463Y31663D01*
G01X24490Y31692D01*
G01X24517Y31722D01*
G01X24542Y31752D01*
G01X24567Y31784D01*
G01X24591Y31815D01*
G01X24615Y31848D01*
G01X24637Y31881D01*
G01X24659Y31914D01*
G01X24679Y31948D01*
G01X24699Y31983D01*
G01X24718Y32018D01*
G01X24737Y32053D01*
G01X24754Y32089D01*
G01X24770Y32125D01*
G01X24786Y32162D01*
G01X24801Y32200D01*
G01X24814Y32237D01*
G01X24827Y32275D01*
G01X24839Y32313D01*
G01X24849Y32352D01*
G01X24859Y32390D01*
G01X24868Y32429D01*
G01X24876Y32468D01*
G01X24883Y32507D01*
G01X24889Y32546D01*
G01X24894Y32586D01*
G01X24898Y32626D01*
G01X24901Y32666D01*
G01X24903Y32706D01*
G01X24904Y32745D01*
G01X24904Y32785D01*
G01X24903Y32825D01*
G01X24901Y32865D01*
G01X24898Y32905D01*
G01X24894Y32944D01*
G01X24889Y32985D01*
G01X24883Y33024D01*
G01X24876Y33063D01*
G01X24868Y33102D01*
G01X24859Y33141D01*
G01X24849Y33179D01*
G01X24839Y33218D01*
G01X24827Y33256D01*
G01X24814Y33294D01*
G01X24801Y33331D01*
G01X24786Y33369D01*
G01X24770Y33406D01*
G01X24754Y33441D01*
G01X24737Y33477D01*
G01X24718Y33513D01*
G01X24699Y33548D01*
G01X24679Y33583D01*
G01X24659Y33617D01*
G01X24637Y33650D01*
G01X24615Y33683D01*
G01X24591Y33715D01*
G01X24567Y33747D01*
G01X24542Y33779D01*
G01X24517Y33809D01*
G01X24490Y33839D01*
G01X24463Y33868D01*
G01X24435Y33897D01*
G01X24407Y33925D01*
G01X24378Y33952D01*
G01X24348Y33978D01*
G01X24317Y34004D01*
G01X24286Y34029D01*
G01X24277Y34035D01*
G01X24286Y34042D01*
G01X24317Y34067D01*
G01X24348Y34093D01*
G01X24378Y34119D01*
G01X24407Y34146D01*
G01X24435Y34174D01*
G01X24463Y34203D01*
G01X24490Y34232D01*
G01X24517Y34262D01*
G01X24542Y34292D01*
G01X24567Y34324D01*
G01X24591Y34355D01*
G01X24615Y34388D01*
G01X24637Y34421D01*
G01X24659Y34454D01*
G01X24679Y34488D01*
G01X24699Y34523D01*
G01X24718Y34558D01*
G01X24737Y34593D01*
G01X24754Y34629D01*
G01X24770Y34665D01*
G01X24786Y34702D01*
G01X24801Y34740D01*
G01X24814Y34777D01*
G01X24827Y34815D01*
G01X24839Y34853D01*
G01X24849Y34892D01*
G01X24853Y34905D01*
G01X23482Y34905D01*
G01X23482Y34355D01*
G01X23444Y34359D01*
G01X23404Y34362D01*
G01X23364Y34364D01*
G01X23324Y34365D01*
G01X23304Y34366D01*
G01X22415Y34366D01*
G01X22395Y34365D01*
G01X22355Y34364D01*
G01X22315Y34362D01*
G01X22275Y34359D01*
G01X22237Y34355D01*
G01X22237Y34905D01*
G01X20866Y34905D01*
G01X20869Y34892D01*
G01X20880Y34853D01*
G01X20892Y34815D01*
G01X20905Y34777D01*
G01X20918Y34740D01*
G01X20933Y34702D01*
G01X20949Y34665D01*
G01X20965Y34629D01*
G01X20982Y34593D01*
G01X21000Y34558D01*
G01X21019Y34523D01*
G01X21039Y34488D01*
G01X21060Y34454D01*
G01X21082Y34421D01*
G01X21104Y34388D01*
G01X21127Y34355D01*
G01X21152Y34324D01*
G01X21177Y34292D01*
G01X21202Y34262D01*
G01X21229Y34232D01*
G01X21256Y34203D01*
G01X21284Y34174D01*
G01X21312Y34146D01*
G01X21341Y34119D01*
G01X21371Y34093D01*
G01X21402Y34067D01*
G01X21433Y34042D01*
G01X21442Y34035D01*
G01X21433Y34029D01*
G01X21402Y34004D01*
G01X21371Y33978D01*
G01X21357Y33965D01*
G01X19334Y33965D01*
G01X19319Y33978D01*
G01X19287Y34003D01*
G01X19278Y34010D01*
G01X19287Y34017D01*
G01X19319Y34042D01*
G01X19349Y34067D01*
G01X19379Y34094D01*
G01X19408Y34121D01*
G01X19437Y34149D01*
G01X19465Y34178D01*
G01X19492Y34207D01*
G01X19518Y34236D01*
G01X19544Y34267D01*
G01X19569Y34298D01*
G01X19593Y34330D01*
G01X19616Y34363D01*
G01X19639Y34396D01*
G01X19660Y34429D01*
G01X19681Y34463D01*
G01X19701Y34497D01*
G01X19720Y34532D01*
G01X19738Y34568D01*
G01X19755Y34604D01*
G01X19772Y34640D01*
G01X19788Y34677D01*
G01X19802Y34714D01*
G01X19816Y34752D01*
G01X19828Y34789D01*
G01X19840Y34828D01*
G01X19851Y34866D01*
G01X19855Y34880D01*
G01X18481Y34880D01*
G01X18481Y34330D01*
G01X18445Y34334D01*
G01X18406Y34337D01*
G01X18365Y34339D01*
G01X18325Y34340D01*
G01X18306Y34340D01*
G01X17406Y34340D01*
G01X17386Y34340D01*
G01X17346Y34339D01*
G01X17306Y34337D01*
G01X17266Y34334D01*
G01X17231Y34330D01*
G01X17231Y34880D01*
G01X15857Y34880D01*
G01X15860Y34866D01*
G01X15871Y34828D01*
G01X15883Y34789D01*
G01X15896Y34752D01*
G01X15909Y34714D01*
G01X15924Y34677D01*
G01X15939Y34640D01*
G01X15956Y34604D01*
G01X15973Y34568D01*
G01X15991Y34532D01*
G01X16010Y34497D01*
G01X16030Y34463D01*
G01X16051Y34429D01*
G01X16072Y34396D01*
G01X16095Y34363D01*
G01X16118Y34330D01*
G01X16143Y34298D01*
G01X16167Y34267D01*
G01X16193Y34236D01*
G01X16219Y34207D01*
G01X16246Y34178D01*
G01X16274Y34149D01*
G01X16303Y34121D01*
G01X16332Y34094D01*
G01X16362Y34067D01*
G01X16393Y34042D01*
G01X16424Y34017D01*
G01X16433Y34010D01*
G01X16424Y34003D01*
G01X16393Y33978D01*
G01X16362Y33953D01*
G01X16332Y33926D01*
G01X16303Y33899D01*
G01X16274Y33871D01*
G01X16246Y33843D01*
G01X16219Y33813D01*
G01X16193Y33784D01*
G01X16167Y33753D01*
G01X16143Y33722D01*
G01X16118Y33690D01*
G01X16095Y33657D01*
G01X16072Y33624D01*
G01X16051Y33591D01*
G01X16030Y33557D01*
G01X16010Y33523D01*
G01X15991Y33488D01*
G01X15973Y33452D01*
G01X15956Y33416D01*
G01X15939Y33380D01*
G01X15924Y33343D01*
G01X15909Y33306D01*
G01X15896Y33268D01*
G01X15883Y33231D01*
G01X15871Y33192D01*
G01X15860Y33154D01*
G01X15850Y33115D01*
G01X15842Y33077D01*
G01X15834Y33038D01*
G01X15827Y32998D01*
G01X15821Y32959D01*
G01X15816Y32919D01*
G01X15812Y32879D01*
G01X15809Y32840D01*
G01X15807Y32800D01*
G01X15806Y32760D01*
G01X15806Y32720D01*
G01X15807Y32680D01*
G01X15809Y32641D01*
G01X15812Y32601D01*
G01X15816Y32561D01*
G01X15821Y32521D01*
G01X15827Y32482D01*
G01X15834Y32442D01*
G01X15842Y32403D01*
G01X15850Y32365D01*
G01X15860Y32326D01*
G01X15871Y32288D01*
G01X15883Y32249D01*
G01X15896Y32212D01*
G01X15909Y32174D01*
G01X15924Y32137D01*
G01X15939Y32100D01*
G01X15956Y32064D01*
G01X15973Y32028D01*
G01X15991Y31992D01*
G01X16010Y31957D01*
G01X16030Y31923D01*
G01X16051Y31889D01*
G01X16072Y31856D01*
G01X16095Y31823D01*
G01X16118Y31790D01*
G01X16143Y31758D01*
G01X16167Y31727D01*
G01X16193Y31696D01*
G01X16219Y31667D01*
G01X16246Y31638D01*
G01X16274Y31609D01*
G01X16303Y31581D01*
G01X16332Y31554D01*
G01X16362Y31527D01*
G01X16393Y31502D01*
G01X16424Y31477D01*
G01X16455Y31453D01*
G01X16488Y31430D01*
G01X16521Y31407D01*
G01X16554Y31385D01*
G01X16589Y31365D01*
G01X16623Y31345D01*
G01X16658Y31326D01*
G01X16693Y31308D01*
G01X16730Y31290D01*
G01X16766Y31274D01*
G01X16803Y31258D01*
G01X16840Y31244D01*
G01X16877Y31230D01*
G01X16915Y31217D01*
G01X16953Y31205D01*
G01X16992Y31195D01*
G01X17030Y31185D01*
G01X17069Y31176D01*
G01X17109Y31168D01*
G01X17148Y31161D01*
G01X17187Y31155D01*
G01X17227Y31150D01*
G01X17266Y31146D01*
G01X17306Y31143D01*
G01X17346Y31141D01*
G01X17386Y31140D01*
G01X17406Y31140D01*
G01X18306Y31140D01*
G01X18325Y31140D01*
G01X18365Y31141D01*
G01X18406Y31143D01*
G01X18445Y31146D01*
G01X18485Y31150D01*
G01X18524Y31155D01*
G01X18563Y31161D01*
G01X18603Y31168D01*
G01X18642Y31176D01*
G01X18681Y31185D01*
G01X18720Y31195D01*
G01X18758Y31205D01*
G01X18796Y31217D01*
G01X18834Y31230D01*
G01X18872Y31244D01*
G01X18909Y31258D01*
G01X18945Y31274D01*
G01X18982Y31290D01*
G01X19018Y31308D01*
G01X19054Y31326D01*
G01X19088Y31345D01*
G01X19123Y31365D01*
G01X19157Y31385D01*
G01X19190Y31407D01*
G01X19223Y31430D01*
G01X19256Y31453D01*
G01X19287Y31477D01*
G01X19319Y31502D01*
G01X19349Y31527D01*
G01X19379Y31554D01*
G01X19392Y31565D01*
G01X21357Y31565D01*
G01X21371Y31553D01*
G01X21402Y31527D01*
G01X21433Y31502D01*
G01X21442Y31495D01*
G01X21433Y31489D01*
G01X21402Y31464D01*
G01X21371Y31438D01*
G01X21341Y31412D01*
G01X21312Y31385D01*
G01X21284Y31357D01*
G01X21256Y31328D01*
G01X21229Y31299D01*
G01X21202Y31269D01*
G01X21177Y31239D01*
G01X21152Y31207D01*
G01X21127Y31175D01*
G01X21104Y31143D01*
G01X21082Y31110D01*
G01X21060Y31077D01*
G01X21039Y31043D01*
G01X21019Y31008D01*
G01X21000Y30973D01*
G01X20982Y30937D01*
G01X20965Y30901D01*
G01X20949Y30866D01*
G01X20933Y30829D01*
G01X20918Y30791D01*
G01X20905Y30754D01*
G01X20892Y30716D01*
G01X20880Y30678D01*
G01X20869Y30639D01*
G01X20860Y30601D01*
G01X20851Y30562D01*
G01X20843Y30523D01*
G01X20836Y30484D01*
G01X20830Y30445D01*
G01X20825Y30404D01*
G01X20821Y30365D01*
G01X20818Y30325D01*
G01X20816Y30285D01*
G01X20815Y30245D01*
G01X20815Y30205D01*
G01X20816Y30166D01*
G01X20818Y30126D01*
G01X20821Y30086D01*
G01X20825Y30046D01*
G01X20830Y30006D01*
G01X20836Y29967D01*
G01X20843Y29928D01*
G01X20851Y29889D01*
G01X20860Y29850D01*
G01X20869Y29812D01*
G01X20880Y29773D01*
G01X20892Y29735D01*
G01X20905Y29697D01*
G01X20918Y29660D01*
G01X20933Y29622D01*
G01X20949Y29585D01*
G01X20965Y29549D01*
G01X20982Y29513D01*
G01X21000Y29478D01*
G01X21019Y29443D01*
G01X21039Y29408D01*
G01X21060Y29374D01*
G01X21082Y29341D01*
G01X21104Y29308D01*
G01X21127Y29275D01*
G01X21152Y29244D01*
G01X21177Y29212D01*
G01X21202Y29182D01*
G01X21229Y29152D01*
G01X21256Y29123D01*
G01X21284Y29094D01*
G01X21312Y29066D01*
G01X21341Y29039D01*
G01X21371Y29013D01*
G01X21402Y28987D01*
G01X21433Y28962D01*
G01X21442Y28955D01*
G01X21433Y28949D01*
G01X21402Y28924D01*
G01X21371Y28898D01*
G01X21341Y28872D01*
G01X21312Y28845D01*
G01X21284Y28817D01*
G01X21256Y28788D01*
G01X21229Y28759D01*
G01X21202Y28729D01*
G01X21177Y28699D01*
G01X21152Y28667D01*
G01X21127Y28635D01*
G01X21104Y28603D01*
G01X21082Y28570D01*
G01X21060Y28537D01*
G01X21039Y28503D01*
G01X21019Y28468D01*
G01X21000Y28433D01*
G01X20982Y28397D01*
G01X20965Y28361D01*
G01X20949Y28326D01*
G01X20933Y28289D01*
G01X20918Y28251D01*
G01X20905Y28214D01*
G01X20892Y28176D01*
G01X20880Y28138D01*
G01X20869Y28099D01*
G01X20860Y28061D01*
G01X20851Y28022D01*
G01X20843Y27983D01*
G01X20836Y27944D01*
G01X20830Y27905D01*
G01X20825Y27864D01*
G01X20821Y27825D01*
G01X20818Y27785D01*
G01X20816Y27745D01*
G01X20815Y27705D01*
G01X20815Y27665D01*
G01X20816Y27626D01*
G01X20818Y27586D01*
G01X20821Y27546D01*
G01X20825Y27506D01*
G01X20830Y27466D01*
G01X20836Y27427D01*
G01X20843Y27388D01*
G01X20851Y27349D01*
G01X20860Y27310D01*
G01X20869Y27272D01*
G01X20880Y27233D01*
G01X20892Y27195D01*
G01X20905Y27157D01*
G01X20918Y27120D01*
G01X20933Y27082D01*
G01X20949Y27045D01*
G01X20965Y27009D01*
G01X20982Y26973D01*
G01X21000Y26938D01*
G01X21019Y26903D01*
G01X21039Y26868D01*
G01X21060Y26834D01*
G01X21082Y26801D01*
G01X21104Y26768D01*
G01X21127Y26735D01*
G01X21152Y26704D01*
G01X21177Y26672D01*
G01X21202Y26642D01*
G01X21229Y26612D01*
G01X21256Y26583D01*
G01X21284Y26554D01*
G01X21312Y26526D01*
G01X21341Y26499D01*
G01X21371Y26473D01*
G01X21402Y26447D01*
G01X21433Y26422D01*
G01X21442Y26415D01*
G01X21433Y26409D01*
G01X21402Y26384D01*
G01X21371Y26358D01*
G01X21341Y26332D01*
G01X21312Y26305D01*
G01X21284Y26277D01*
G01X21256Y26248D01*
G01X21229Y26219D01*
G01X21202Y26189D01*
G01X21177Y26159D01*
G01X21152Y26127D01*
G01X21127Y26095D01*
G01X21104Y26063D01*
G01X21082Y26030D01*
G01X21060Y25997D01*
G01X21039Y25963D01*
G01X21019Y25928D01*
G01X21000Y25893D01*
G01X20982Y25857D01*
G01X20965Y25821D01*
G01X20949Y25786D01*
G01X20933Y25749D01*
G01X20918Y25711D01*
G01X20905Y25674D01*
G01X20892Y25636D01*
G01X20880Y25598D01*
G01X20869Y25559D01*
G01X20860Y25521D01*
G01X20851Y25482D01*
G01X20843Y25443D01*
G01X20836Y25404D01*
G01X20830Y25365D01*
G01X20825Y25324D01*
G01X20821Y25285D01*
G01X20818Y25245D01*
G01X20816Y25205D01*
G01X20815Y25165D01*
G01X20815Y25125D01*
G01X20816Y25086D01*
G01X20818Y25046D01*
G01X20821Y25006D01*
G01X20825Y24966D01*
G01X20830Y24926D01*
G01X20836Y24887D01*
G01X20843Y24848D01*
G01X20851Y24809D01*
G01X20860Y24770D01*
G01X20869Y24732D01*
G01X20880Y24693D01*
G01X20892Y24655D01*
G01X20905Y24617D01*
G01X20918Y24580D01*
G01X20933Y24542D01*
G01X20949Y24505D01*
G01X20965Y24469D01*
G01X20982Y24433D01*
G01X21000Y24398D01*
G01X21019Y24363D01*
G01X21039Y24328D01*
G01X21060Y24294D01*
G01X21082Y24261D01*
G01X21104Y24228D01*
G01X21127Y24195D01*
G01X21152Y24164D01*
G01X21177Y24132D01*
G01X21202Y24102D01*
G01X21229Y24072D01*
G01X21256Y24043D01*
G01X21284Y24014D01*
G01X21312Y23986D01*
G01X21341Y23959D01*
G01X21371Y23933D01*
G01X21402Y23907D01*
G01X21433Y23882D01*
G01X21442Y23875D01*
G01X21433Y23869D01*
G01X21402Y23844D01*
G01X21371Y23818D01*
G01X21341Y23792D01*
G01X21312Y23765D01*
G01X21284Y23737D01*
G01X21256Y23708D01*
G01X21229Y23679D01*
G01X21202Y23649D01*
G01X21177Y23619D01*
G01X21152Y23587D01*
G01X21127Y23555D01*
G01X21104Y23523D01*
G01X21082Y23490D01*
G01X21060Y23457D01*
G01X21039Y23423D01*
G01X21019Y23388D01*
G01X21000Y23353D01*
G01X20982Y23317D01*
G01X20965Y23281D01*
G01X20949Y23246D01*
G01X20933Y23209D01*
G01X20918Y23171D01*
G01X20905Y23134D01*
G01X20892Y23096D01*
G01X20880Y23058D01*
G01X20869Y23019D01*
G01X20860Y22981D01*
G01X20851Y22942D01*
G01X20843Y22903D01*
G01X20836Y22864D01*
G01X20830Y22825D01*
G01X20825Y22784D01*
G01X20821Y22745D01*
G01X20818Y22705D01*
G01X20816Y22665D01*
G01X20815Y22625D01*
G01X20815Y22585D01*
G01X20816Y22546D01*
G01X20818Y22506D01*
G01X20821Y22466D01*
G01X20825Y22426D01*
G01X20830Y22386D01*
G01X20836Y22347D01*
G01X20843Y22308D01*
G01X20851Y22269D01*
G01X20860Y22230D01*
G01X20869Y22192D01*
G01X20880Y22153D01*
G01X20892Y22115D01*
G01X20905Y22077D01*
G01X20918Y22040D01*
G01X20933Y22002D01*
G01X20949Y21965D01*
G01X20965Y21929D01*
G01X20982Y21893D01*
G01X21000Y21858D01*
G01X21019Y21823D01*
G01X21039Y21788D01*
G01X21060Y21754D01*
G01X21082Y21721D01*
G01X21104Y21688D01*
G01X21127Y21655D01*
G01X21152Y21624D01*
G01X21177Y21592D01*
G01X21202Y21562D01*
G01X21229Y21532D01*
G01X21256Y21503D01*
G01X21284Y21474D01*
G01X21312Y21446D01*
G01X21341Y21419D01*
G01X21371Y21393D01*
G01X21402Y21367D01*
G01X21433Y21342D01*
G01X21442Y21335D01*
G01X21433Y21329D01*
G01X21402Y21304D01*
G01X21371Y21278D01*
G01X21341Y21252D01*
G01X21312Y21225D01*
G01X21284Y21197D01*
G01X21256Y21168D01*
G01X21229Y21139D01*
G01X21202Y21109D01*
G01X21177Y21079D01*
G01X21152Y21047D01*
G01X21127Y21015D01*
G01X21104Y20983D01*
G01X21082Y20950D01*
G01X21060Y20917D01*
G01X21039Y20883D01*
G01X21019Y20848D01*
G01X21000Y20813D01*
G01X20982Y20777D01*
G01X20965Y20741D01*
G01X20949Y20706D01*
G01X20933Y20669D01*
G01X20918Y20631D01*
G01X20905Y20594D01*
G01X20892Y20556D01*
G01X20880Y20518D01*
G01X20869Y20479D01*
G01X20860Y20441D01*
G01X20851Y20402D01*
G01X20843Y20363D01*
G01X20836Y20324D01*
G01X20830Y20285D01*
G01X20825Y20244D01*
G01X20821Y20205D01*
G01X20818Y20165D01*
G01X20816Y20125D01*
G01X20815Y20085D01*
G01X20815Y20045D01*
G01X20816Y20006D01*
G01X20818Y19966D01*
G01X20821Y19926D01*
G01X20825Y19886D01*
G01X20830Y19846D01*
G01X20836Y19807D01*
G01X20843Y19768D01*
G01X20851Y19729D01*
G01X20860Y19690D01*
G01X20869Y19652D01*
G01X20880Y19613D01*
G01X20892Y19575D01*
G01X20905Y19537D01*
G01X20918Y19500D01*
G01X20933Y19462D01*
G01X20949Y19425D01*
G01X20965Y19389D01*
G01X20982Y19353D01*
G01X21000Y19318D01*
G01X21019Y19283D01*
G01X21039Y19248D01*
G01X21060Y19214D01*
G01X21082Y19181D01*
G01X21104Y19148D01*
G01X21127Y19115D01*
G01X21152Y19084D01*
G01X21177Y19052D01*
G01X21202Y19022D01*
G01X21229Y18992D01*
G01X21256Y18963D01*
G01X21284Y18934D01*
G01X21312Y18906D01*
G01X21341Y18879D01*
G01X21371Y18853D01*
G01X21402Y18827D01*
G01X21433Y18802D01*
G01X21442Y18795D01*
G01X21433Y18789D01*
G01X21402Y18764D01*
G01X21371Y18738D01*
G01X21357Y18725D01*
G01X15747Y18725D01*
G01X15724Y18725D01*
G01X15701Y18725D01*
G01X15678Y18723D01*
G01X15656Y18722D01*
G01X15633Y18720D01*
G01X15610Y18717D01*
G01X15587Y18715D01*
G01X15564Y18711D01*
G01X15542Y18708D01*
G01X15519Y18703D01*
G01X15496Y18699D01*
G01X15474Y18694D01*
G01X15452Y18688D01*
G01X15429Y18683D01*
G01X15407Y18676D01*
G01X15385Y18669D01*
G01X15364Y18662D01*
G01X15342Y18655D01*
G01X15320Y18647D01*
G01X15299Y18638D01*
G01X15278Y18630D01*
G01X15257Y18620D01*
G01X15236Y18611D01*
G01X15215Y18601D01*
G01X15194Y18590D01*
G01X15174Y18580D01*
G01X15154Y18568D01*
G01X15134Y18557D01*
G01X15115Y18545D01*
G01X15095Y18533D01*
G01X15076Y18520D01*
G01X15057Y18507D01*
G01X15038Y18494D01*
G01X15020Y18480D01*
G01X15002Y18466D01*
G01X14984Y18451D01*
G01X14966Y18436D01*
G01X14949Y18421D01*
G01X14932Y18406D01*
G01X14915Y18390D01*
G01X14899Y18374D01*
G01X14137Y17612D01*
G01X14121Y17596D01*
G01X14105Y17579D01*
G01X14090Y17562D01*
G01X14074Y17544D01*
G01X14060Y17527D01*
G01X14045Y17509D01*
G01X14031Y17491D01*
G01X14017Y17472D01*
G01X14004Y17454D01*
G01X13991Y17435D01*
G01X13978Y17416D01*
G01X13966Y17396D01*
G01X13954Y17377D01*
G01X13942Y17357D01*
G01X13931Y17337D01*
G01X13920Y17316D01*
G01X13910Y17296D01*
G01X13900Y17275D01*
G01X13890Y17254D01*
G01X13881Y17233D01*
G01X13872Y17212D01*
G01X13864Y17191D01*
G01X13856Y17169D01*
G01X13848Y17147D01*
G01X13841Y17125D01*
G01X13835Y17104D01*
G01X13828Y17081D01*
G01X13822Y17059D01*
G01X13817Y17037D01*
G01X13812Y17014D01*
G01X13807Y16992D01*
G01X13803Y16969D01*
G01X13799Y16947D01*
G01X13796Y16924D01*
G01X13793Y16901D01*
G01X13791Y16878D01*
G01X13789Y16855D01*
G01X13787Y16832D01*
G01X13786Y16809D01*
G01X13786Y16786D01*
G01X13785Y16763D01*
G01X13785Y13391D01*
G01X11786Y13391D01*
G01X11799Y13404D01*
G01X11827Y13433D01*
G01X11854Y13462D01*
G01X11880Y13492D01*
G01X11906Y13522D01*
G01X11931Y13554D01*
G01X11955Y13585D01*
G01X11978Y13618D01*
G01X12000Y13651D01*
G01X12022Y13684D01*
G01X12043Y13718D01*
G01X12063Y13753D01*
G01X12082Y13788D01*
G01X12100Y13823D01*
G01X12117Y13859D01*
G01X12134Y13896D01*
G01X12149Y13932D01*
G01X12164Y13969D01*
G01X12178Y14007D01*
G01X12190Y14045D01*
G01X12202Y14083D01*
G01X12213Y14122D01*
G01X12223Y14160D01*
G01X12231Y14199D01*
G01X12239Y14238D01*
G01X12246Y14278D01*
G01X12252Y14317D01*
G01X12257Y14356D01*
G01X12258Y14360D01*
G01X11067Y14360D01*
G01X11067Y13391D01*
G37*

%LPC*%
G36*
G01X11067Y16984D02*
G01X11067Y15610D01*
G01X12258Y15610D01*
G01X12257Y15614D01*
G01X12252Y15654D01*
G01X12246Y15693D01*
G01X12239Y15732D01*
G01X12231Y15772D01*
G01X12223Y15811D01*
G01X12213Y15849D01*
G01X12202Y15888D01*
G01X12190Y15926D01*
G01X12178Y15964D01*
G01X12164Y16001D01*
G01X12149Y16039D01*
G01X12134Y16075D01*
G01X12117Y16112D01*
G01X12100Y16148D01*
G01X12082Y16183D01*
G01X12063Y16218D01*
G01X12043Y16252D01*
G01X12022Y16287D01*
G01X12000Y16320D01*
G01X11978Y16353D01*
G01X11955Y16386D01*
G01X11931Y16417D01*
G01X11906Y16448D01*
G01X11880Y16479D01*
G01X11854Y16509D01*
G01X11827Y16538D01*
G01X11799Y16567D01*
G01X11770Y16595D01*
G01X11741Y16622D01*
G01X11711Y16648D01*
G01X11681Y16674D01*
G01X11649Y16699D01*
G01X11618Y16723D01*
G01X11585Y16746D01*
G01X11552Y16769D01*
G01X11519Y16790D01*
G01X11485Y16811D01*
G01X11450Y16831D01*
G01X11415Y16850D01*
G01X11380Y16868D01*
G01X11344Y16885D01*
G01X11307Y16902D01*
G01X11270Y16917D01*
G01X11233Y16932D01*
G01X11196Y16946D01*
G01X11158Y16958D01*
G01X11120Y16970D01*
G01X11081Y16981D01*
G01X11067Y16984D01*
G37*
G36*
G01X9514Y35159D02*
G01X9514Y33969D01*
G01X9518Y33970D01*
G01X9558Y33975D01*
G01X9597Y33980D01*
G01X9636Y33987D01*
G01X9676Y33995D01*
G01X9715Y34004D01*
G01X9753Y34014D01*
G01X9792Y34025D01*
G01X9830Y34037D01*
G01X9868Y34049D01*
G01X9905Y34063D01*
G01X9943Y34078D01*
G01X9979Y34093D01*
G01X10016Y34109D01*
G01X10052Y34127D01*
G01X10087Y34145D01*
G01X10122Y34164D01*
G01X10157Y34184D01*
G01X10191Y34205D01*
G01X10224Y34226D01*
G01X10257Y34249D01*
G01X10290Y34272D01*
G01X10321Y34296D01*
G01X10352Y34321D01*
G01X10383Y34347D01*
G01X10413Y34373D01*
G01X10442Y34400D01*
G01X10471Y34428D01*
G01X10499Y34457D01*
G01X10526Y34486D01*
G01X10552Y34516D01*
G01X10578Y34546D01*
G01X10603Y34577D01*
G01X10627Y34609D01*
G01X10650Y34642D01*
G01X10673Y34675D01*
G01X10694Y34708D01*
G01X10715Y34742D01*
G01X10735Y34777D01*
G01X10754Y34812D01*
G01X10772Y34847D01*
G01X10789Y34883D01*
G01X10806Y34920D01*
G01X10821Y34956D01*
G01X10836Y34994D01*
G01X10850Y35031D01*
G01X10862Y35069D01*
G01X10874Y35107D01*
G01X10885Y35146D01*
G01X10888Y35159D01*
G01X9514Y35159D01*
G37*
G36*
G01X8260Y33970D02*
G01X8264Y33969D01*
G01X8264Y35159D01*
G01X6891Y35159D01*
G01X6894Y35146D01*
G01X6905Y35107D01*
G01X6917Y35069D01*
G01X6929Y35031D01*
G01X6943Y34994D01*
G01X6958Y34956D01*
G01X6973Y34920D01*
G01X6990Y34883D01*
G01X7007Y34847D01*
G01X7025Y34812D01*
G01X7044Y34777D01*
G01X7064Y34742D01*
G01X7085Y34708D01*
G01X7106Y34675D01*
G01X7129Y34642D01*
G01X7152Y34609D01*
G01X7176Y34577D01*
G01X7201Y34546D01*
G01X7227Y34516D01*
G01X7253Y34486D01*
G01X7280Y34457D01*
G01X7308Y34428D01*
G01X7337Y34400D01*
G01X7366Y34373D01*
G01X7396Y34347D01*
G01X7427Y34321D01*
G01X7458Y34296D01*
G01X7489Y34272D01*
G01X7522Y34249D01*
G01X7555Y34226D01*
G01X7588Y34205D01*
G01X7622Y34184D01*
G01X7657Y34164D01*
G01X7692Y34145D01*
G01X7727Y34127D01*
G01X7763Y34109D01*
G01X7800Y34093D01*
G01X7836Y34078D01*
G01X7873Y34063D01*
G01X7911Y34049D01*
G01X7949Y34037D01*
G01X7987Y34025D01*
G01X8026Y34014D01*
G01X8064Y34004D01*
G01X8103Y33995D01*
G01X8142Y33987D01*
G01X8182Y33980D01*
G01X8221Y33975D01*
G01X8260Y33970D01*
G37*
G36*
G01X18481Y36870D02*
G01X18481Y35680D01*
G01X19855Y35680D01*
G01X19851Y35694D01*
G01X19840Y35732D01*
G01X19828Y35771D01*
G01X19816Y35808D01*
G01X19802Y35846D01*
G01X19788Y35883D01*
G01X19772Y35920D01*
G01X19755Y35956D01*
G01X19738Y35992D01*
G01X19720Y36028D01*
G01X19701Y36063D01*
G01X19681Y36097D01*
G01X19660Y36131D01*
G01X19639Y36164D01*
G01X19616Y36197D01*
G01X19593Y36230D01*
G01X19569Y36262D01*
G01X19544Y36293D01*
G01X19518Y36324D01*
G01X19492Y36353D01*
G01X19465Y36383D01*
G01X19437Y36411D01*
G01X19408Y36439D01*
G01X19379Y36466D01*
G01X19349Y36493D01*
G01X19319Y36518D01*
G01X19287Y36543D01*
G01X19256Y36567D01*
G01X19223Y36590D01*
G01X19190Y36613D01*
G01X19157Y36635D01*
G01X19123Y36656D01*
G01X19088Y36675D01*
G01X19054Y36694D01*
G01X19018Y36713D01*
G01X18982Y36730D01*
G01X18945Y36746D01*
G01X18909Y36762D01*
G01X18872Y36776D01*
G01X18834Y36790D01*
G01X18796Y36803D01*
G01X18758Y36815D01*
G01X18720Y36825D01*
G01X18681Y36835D01*
G01X18642Y36844D01*
G01X18603Y36852D01*
G01X18563Y36859D01*
G01X18524Y36865D01*
G01X18485Y36870D01*
G01X18481Y36870D01*
G37*
G36*
G01X15860Y35694D02*
G01X15857Y35680D01*
G01X17231Y35680D01*
G01X17231Y36870D01*
G01X17227Y36870D01*
G01X17187Y36865D01*
G01X17148Y36859D01*
G01X17109Y36852D01*
G01X17069Y36844D01*
G01X17030Y36835D01*
G01X16992Y36825D01*
G01X16953Y36815D01*
G01X16915Y36803D01*
G01X16877Y36790D01*
G01X16840Y36776D01*
G01X16803Y36762D01*
G01X16766Y36746D01*
G01X16730Y36730D01*
G01X16693Y36713D01*
G01X16658Y36694D01*
G01X16623Y36675D01*
G01X16589Y36656D01*
G01X16554Y36635D01*
G01X16521Y36613D01*
G01X16488Y36590D01*
G01X16455Y36567D01*
G01X16424Y36543D01*
G01X16393Y36518D01*
G01X16362Y36493D01*
G01X16332Y36466D01*
G01X16303Y36439D01*
G01X16274Y36411D01*
G01X16246Y36383D01*
G01X16219Y36353D01*
G01X16193Y36324D01*
G01X16167Y36293D01*
G01X16143Y36262D01*
G01X16118Y36230D01*
G01X16095Y36197D01*
G01X16072Y36164D01*
G01X16051Y36131D01*
G01X16030Y36097D01*
G01X16010Y36063D01*
G01X15991Y36028D01*
G01X15973Y35992D01*
G01X15956Y35956D01*
G01X15939Y35920D01*
G01X15924Y35883D01*
G01X15909Y35846D01*
G01X15896Y35808D01*
G01X15883Y35771D01*
G01X15871Y35732D01*
G01X15860Y35694D01*
G37*
G36*
G01X20869Y35719D02*
G01X20866Y35705D01*
G01X22237Y35705D01*
G01X22237Y36255D01*
G01X22275Y36252D01*
G01X22315Y36249D01*
G01X22355Y36247D01*
G01X22395Y36246D01*
G01X22415Y36245D01*
G01X23304Y36245D01*
G01X23324Y36246D01*
G01X23364Y36247D01*
G01X23404Y36249D01*
G01X23444Y36252D01*
G01X23482Y36255D01*
G01X23482Y35705D01*
G01X24853Y35705D01*
G01X24849Y35719D01*
G01X24839Y35758D01*
G01X24827Y35796D01*
G01X24814Y35834D01*
G01X24801Y35871D01*
G01X24786Y35909D01*
G01X24770Y35946D01*
G01X24754Y35981D01*
G01X24737Y36017D01*
G01X24718Y36053D01*
G01X24699Y36088D01*
G01X24679Y36123D01*
G01X24659Y36157D01*
G01X24637Y36190D01*
G01X24615Y36223D01*
G01X24591Y36255D01*
G01X24567Y36287D01*
G01X24542Y36319D01*
G01X24517Y36349D01*
G01X24490Y36379D01*
G01X24463Y36408D01*
G01X24435Y36437D01*
G01X24407Y36465D01*
G01X24378Y36492D01*
G01X24348Y36518D01*
G01X24317Y36544D01*
G01X24286Y36569D01*
G01X24277Y36575D01*
G01X24286Y36582D01*
G01X24317Y36607D01*
G01X24348Y36633D01*
G01X24378Y36659D01*
G01X24407Y36686D01*
G01X24435Y36714D01*
G01X24463Y36743D01*
G01X24490Y36772D01*
G01X24517Y36802D01*
G01X24542Y36832D01*
G01X24567Y36864D01*
G01X24591Y36895D01*
G01X24615Y36928D01*
G01X24637Y36961D01*
G01X24659Y36994D01*
G01X24679Y37028D01*
G01X24699Y37063D01*
G01X24718Y37098D01*
G01X24737Y37133D01*
G01X24754Y37169D01*
G01X24770Y37205D01*
G01X24786Y37242D01*
G01X24801Y37280D01*
G01X24814Y37317D01*
G01X24827Y37355D01*
G01X24839Y37393D01*
G01X24849Y37432D01*
G01X24859Y37470D01*
G01X24868Y37509D01*
G01X24876Y37548D01*
G01X24883Y37587D01*
G01X24889Y37626D01*
G01X24894Y37666D01*
G01X24898Y37706D01*
G01X24901Y37746D01*
G01X24903Y37786D01*
G01X24904Y37825D01*
G01X24904Y37865D01*
G01X24903Y37905D01*
G01X24901Y37945D01*
G01X24898Y37985D01*
G01X24894Y38024D01*
G01X24889Y38065D01*
G01X24883Y38104D01*
G01X24876Y38143D01*
G01X24868Y38182D01*
G01X24859Y38221D01*
G01X24849Y38259D01*
G01X24839Y38298D01*
G01X24827Y38336D01*
G01X24814Y38374D01*
G01X24801Y38411D01*
G01X24786Y38449D01*
G01X24770Y38486D01*
G01X24754Y38521D01*
G01X24737Y38557D01*
G01X24718Y38593D01*
G01X24699Y38628D01*
G01X24679Y38663D01*
G01X24659Y38697D01*
G01X24637Y38730D01*
G01X24615Y38763D01*
G01X24591Y38795D01*
G01X24567Y38827D01*
G01X24542Y38859D01*
G01X24517Y38889D01*
G01X24490Y38919D01*
G01X24463Y38948D01*
G01X24435Y38977D01*
G01X24407Y39005D01*
G01X24378Y39032D01*
G01X24348Y39058D01*
G01X24317Y39084D01*
G01X24286Y39109D01*
G01X24254Y39133D01*
G01X24222Y39156D01*
G01X24188Y39179D01*
G01X24155Y39200D01*
G01X24121Y39221D01*
G01X24086Y39241D01*
G01X24052Y39260D01*
G01X24016Y39278D01*
G01X23980Y39295D01*
G01X23944Y39312D01*
G01X23907Y39328D01*
G01X23870Y39342D01*
G01X23833Y39356D01*
G01X23795Y39368D01*
G01X23756Y39380D01*
G01X23718Y39391D01*
G01X23679Y39401D01*
G01X23640Y39410D01*
G01X23602Y39417D01*
G01X23562Y39424D01*
G01X23522Y39430D01*
G01X23483Y39435D01*
G01X23444Y39439D01*
G01X23404Y39442D01*
G01X23364Y39444D01*
G01X23324Y39445D01*
G01X23304Y39446D01*
G01X22415Y39446D01*
G01X22395Y39445D01*
G01X22355Y39444D01*
G01X22315Y39442D01*
G01X22275Y39439D01*
G01X22236Y39435D01*
G01X22196Y39430D01*
G01X22157Y39424D01*
G01X22117Y39417D01*
G01X22079Y39410D01*
G01X22040Y39401D01*
G01X22001Y39391D01*
G01X21963Y39380D01*
G01X21924Y39368D01*
G01X21886Y39356D01*
G01X21849Y39342D01*
G01X21812Y39328D01*
G01X21775Y39312D01*
G01X21739Y39295D01*
G01X21703Y39278D01*
G01X21667Y39260D01*
G01X21632Y39241D01*
G01X21598Y39221D01*
G01X21564Y39200D01*
G01X21530Y39179D01*
G01X21497Y39156D01*
G01X21465Y39133D01*
G01X21433Y39109D01*
G01X21402Y39084D01*
G01X21371Y39058D01*
G01X21341Y39032D01*
G01X21312Y39005D01*
G01X21284Y38977D01*
G01X21256Y38948D01*
G01X21229Y38919D01*
G01X21202Y38889D01*
G01X21177Y38859D01*
G01X21152Y38827D01*
G01X21127Y38795D01*
G01X21104Y38763D01*
G01X21082Y38730D01*
G01X21060Y38697D01*
G01X21039Y38663D01*
G01X21019Y38628D01*
G01X21000Y38593D01*
G01X20982Y38557D01*
G01X20965Y38521D01*
G01X20949Y38486D01*
G01X20933Y38449D01*
G01X20918Y38411D01*
G01X20905Y38374D01*
G01X20892Y38336D01*
G01X20880Y38298D01*
G01X20869Y38259D01*
G01X20860Y38221D01*
G01X20851Y38182D01*
G01X20843Y38143D01*
G01X20836Y38104D01*
G01X20830Y38065D01*
G01X20825Y38024D01*
G01X20821Y37985D01*
G01X20818Y37945D01*
G01X20816Y37905D01*
G01X20815Y37865D01*
G01X20815Y37825D01*
G01X20816Y37786D01*
G01X20818Y37746D01*
G01X20821Y37706D01*
G01X20825Y37666D01*
G01X20830Y37626D01*
G01X20836Y37587D01*
G01X20843Y37548D01*
G01X20851Y37509D01*
G01X20860Y37470D01*
G01X20869Y37432D01*
G01X20880Y37393D01*
G01X20892Y37355D01*
G01X20905Y37317D01*
G01X20918Y37280D01*
G01X20933Y37242D01*
G01X20949Y37205D01*
G01X20965Y37169D01*
G01X20982Y37133D01*
G01X21000Y37098D01*
G01X21019Y37063D01*
G01X21039Y37028D01*
G01X21060Y36994D01*
G01X21082Y36961D01*
G01X21104Y36928D01*
G01X21127Y36895D01*
G01X21152Y36864D01*
G01X21177Y36832D01*
G01X21202Y36802D01*
G01X21229Y36772D01*
G01X21256Y36743D01*
G01X21284Y36714D01*
G01X21312Y36686D01*
G01X21341Y36659D01*
G01X21371Y36633D01*
G01X21402Y36607D01*
G01X21433Y36582D01*
G01X21442Y36575D01*
G01X21433Y36569D01*
G01X21402Y36544D01*
G01X21371Y36518D01*
G01X21341Y36492D01*
G01X21312Y36465D01*
G01X21284Y36437D01*
G01X21256Y36408D01*
G01X21229Y36379D01*
G01X21202Y36349D01*
G01X21177Y36319D01*
G01X21152Y36287D01*
G01X21127Y36255D01*
G01X21104Y36223D01*
G01X21082Y36190D01*
G01X21060Y36157D01*
G01X21039Y36123D01*
G01X21019Y36088D01*
G01X21000Y36053D01*
G01X20982Y36017D01*
G01X20965Y35981D01*
G01X20949Y35946D01*
G01X20933Y35909D01*
G01X20918Y35871D01*
G01X20905Y35834D01*
G01X20892Y35796D01*
G01X20880Y35758D01*
G01X20869Y35719D01*
G37*
G36*
G01X9514Y37150D02*
G01X9514Y35959D01*
G01X10888Y35959D01*
G01X10885Y35973D01*
G01X10874Y36012D01*
G01X10862Y36050D01*
G01X10850Y36088D01*
G01X10836Y36125D01*
G01X10821Y36162D01*
G01X10806Y36199D01*
G01X10789Y36236D01*
G01X10772Y36272D01*
G01X10754Y36307D01*
G01X10735Y36342D01*
G01X10715Y36377D01*
G01X10694Y36411D01*
G01X10673Y36444D01*
G01X10650Y36477D01*
G01X10627Y36510D01*
G01X10603Y36541D01*
G01X10578Y36573D01*
G01X10552Y36603D01*
G01X10526Y36633D01*
G01X10499Y36662D01*
G01X10471Y36691D01*
G01X10442Y36719D01*
G01X10413Y36746D01*
G01X10383Y36772D01*
G01X10352Y36798D01*
G01X10321Y36823D01*
G01X10290Y36847D01*
G01X10257Y36870D01*
G01X10224Y36892D01*
G01X10191Y36914D01*
G01X10157Y36935D01*
G01X10122Y36955D01*
G01X10087Y36974D01*
G01X10052Y36992D01*
G01X10016Y37009D01*
G01X9979Y37026D01*
G01X9943Y37041D01*
G01X9905Y37056D01*
G01X9868Y37070D01*
G01X9830Y37082D01*
G01X9792Y37094D01*
G01X9753Y37105D01*
G01X9715Y37115D01*
G01X9676Y37123D01*
G01X9636Y37131D01*
G01X9597Y37138D01*
G01X9558Y37144D01*
G01X9518Y37149D01*
G01X9514Y37150D01*
G37*
G36*
G01X6894Y35973D02*
G01X6891Y35959D01*
G01X8264Y35959D01*
G01X8264Y37150D01*
G01X8260Y37149D01*
G01X8221Y37144D01*
G01X8182Y37138D01*
G01X8142Y37131D01*
G01X8103Y37123D01*
G01X8064Y37115D01*
G01X8026Y37105D01*
G01X7987Y37094D01*
G01X7949Y37082D01*
G01X7911Y37070D01*
G01X7873Y37056D01*
G01X7836Y37041D01*
G01X7800Y37026D01*
G01X7763Y37009D01*
G01X7727Y36992D01*
G01X7692Y36974D01*
G01X7657Y36955D01*
G01X7622Y36935D01*
G01X7588Y36914D01*
G01X7555Y36892D01*
G01X7522Y36870D01*
G01X7489Y36847D01*
G01X7458Y36823D01*
G01X7427Y36798D01*
G01X7396Y36772D01*
G01X7366Y36746D01*
G01X7337Y36719D01*
G01X7308Y36691D01*
G01X7280Y36662D01*
G01X7253Y36633D01*
G01X7227Y36603D01*
G01X7201Y36573D01*
G01X7176Y36541D01*
G01X7152Y36510D01*
G01X7129Y36477D01*
G01X7106Y36444D01*
G01X7085Y36411D01*
G01X7064Y36377D01*
G01X7044Y36342D01*
G01X7025Y36307D01*
G01X7007Y36272D01*
G01X6990Y36236D01*
G01X6973Y36199D01*
G01X6958Y36162D01*
G01X6943Y36125D01*
G01X6929Y36088D01*
G01X6917Y36050D01*
G01X6905Y36012D01*
G01X6894Y35973D01*
G37*

%LPD*%
G54D11*
G01X22859Y12445D02*
G01X19557Y12445D01*
G01X19303Y12191D01*
G01X19303Y7619D01*
G01X19049Y7365D01*
G01X10667Y7365D01*
G01X22859Y14985D02*
G01X17779Y14985D01*
G01X17271Y14477D01*
G01X17271Y10921D01*
G01X16509Y10413D01*
G01X9651Y10413D01*
G01X8127Y10413D01*
G01X8127Y7365D01*
G01X22859Y17525D02*
G01X15747Y17525D01*
G01X14985Y16763D01*
G01X14985Y12445D01*
G01X14731Y12191D01*
G01X6349Y12191D01*
G01X5841Y11683D01*
G01X5841Y7619D01*
G01X5587Y7365D01*
G01X3047Y7365D02*
G01X3047Y4063D01*
G01X3301Y3809D01*
G01X25399Y3809D01*
G01X25907Y4317D01*
G01X25907Y30225D01*
G01X22859Y30225D01*
G01X3047Y14985D02*
G01X253Y14985D01*
G01X253Y14477D01*
G01X253Y507D01*
G01X507Y253D01*
G01X37591Y507D01*
G01X37591Y9397D01*
G01X38099Y9905D01*
G01X22859Y32765D02*
G01X17881Y32765D01*
G01X17856Y32740D01*
G01X8127Y14985D02*
G01X8127Y20924D01*
G01X8381Y21178D01*
G01X8381Y23718D02*
G01X8381Y27431D01*
G01X8889Y27939D01*
G01X29225Y43581D02*
G01X29225Y33543D01*
G01X25907Y30225D01*
G01X29927Y46179D02*
G01X25447Y46179D01*
G01X25399Y46227D01*
G01X25399Y48005D01*
G01X43941Y48005D01*
G01X43941Y28447D01*
G01X43433Y27685D01*
G01X38099Y27685D01*
G54D12*
G01X33527Y43579D03*
G01X34328Y46179D03*
G01X29225Y43581D03*
G01X29927Y46179D03*
G54D13*
G01X3047Y14535D02*
G01X3047Y15435D01*
G01X5587Y14535D02*
G01X5587Y15435D01*
G01X8127Y14535D02*
G01X8127Y15435D01*
G01X10667Y14535D02*
G01X10667Y15435D01*
G01X10667Y6915D02*
G01X10667Y7815D01*
G01X8127Y6915D02*
G01X8127Y7815D01*
G01X5587Y6915D02*
G01X5587Y7815D01*
G01X3047Y6915D02*
G01X3047Y7815D01*
G54D14*
G01X37655Y9905D02*
G01X38544Y9905D01*
G01X37655Y12445D02*
G01X38544Y12445D01*
G01X37655Y14985D02*
G01X38544Y14985D01*
G01X37655Y17525D02*
G01X38544Y17525D01*
G01X37655Y20065D02*
G01X38544Y20065D01*
G01X37655Y22605D02*
G01X38544Y22605D01*
G01X37655Y25145D02*
G01X38544Y25145D01*
G01X37655Y27685D02*
G01X38544Y27685D01*
G01X37655Y30225D02*
G01X38544Y30225D01*
G01X37655Y32765D02*
G01X38544Y32765D01*
G01X37655Y35305D02*
G01X38544Y35305D01*
G01X37655Y37845D02*
G01X38544Y37845D01*
G01X23304Y37845D02*
G01X22415Y37845D01*
G01X23304Y35305D02*
G01X22415Y35305D01*
G01X23304Y32765D02*
G01X22415Y32765D01*
G01X23304Y30225D02*
G01X22415Y30225D01*
G01X23304Y27685D02*
G01X22415Y27685D01*
G01X23304Y25145D02*
G01X22415Y25145D01*
G01X23304Y22605D02*
G01X22415Y22605D01*
G01X23304Y20065D02*
G01X22415Y20065D01*
G01X23304Y17525D02*
G01X22415Y17525D01*
G01X23304Y14985D02*
G01X22415Y14985D01*
G01X23304Y12445D02*
G01X22415Y12445D01*
G01X23304Y9905D02*
G01X22415Y9905D01*
G54D13*
G01X17406Y32740D02*
G01X18306Y32740D01*
G01X17406Y35280D02*
G01X18306Y35280D01*
G01X8831Y21178D02*
G01X7931Y21178D01*
G01X8831Y23718D02*
G01X7931Y23718D01*
G01X8439Y27939D02*
G01X9339Y27939D01*
G01X8439Y35559D02*
G01X9339Y35559D01*
M00*
M02*
